<?xml version="1.0" encoding="UTF-8"?>
<svg version="1.1" xmlns="http://www.w3.org/2000/svg" width="256" height="256">
<path d="M0 0 C0.68336426 0.20367188 1.36672852 0.40734375 2.07080078 0.6171875 C18.92493481 5.87928283 34.5522909 14.63004853 48 26 C49.15048828 26.94166016 49.15048828 26.94166016 50.32421875 27.90234375 C69.58874351 44.08454455 82.42439373 68.02467467 89 92 C89.50853516 93.76150391 89.50853516 93.76150391 90.02734375 95.55859375 C94.79494018 115.61765155 93.87549773 140.30166849 88 160 C87.79632813 160.68336426 87.59265625 161.36672852 87.3828125 162.07080078 C82.12071717 178.92493481 73.36995147 194.5522909 62 208 C61.05833984 209.15048828 61.05833984 209.15048828 60.09765625 210.32421875 C43.91545545 229.58874351 19.97532533 242.42439373 -4 249 C-5.17433594 249.33902344 -6.34867188 249.67804688 -7.55859375 250.02734375 C-27.61765155 254.79494018 -52.30166849 253.87549773 -72 248 C-72.68336426 247.79632813 -73.36672852 247.59265625 -74.07080078 247.3828125 C-90.92493481 242.12071717 -106.5522909 233.36995147 -120 222 C-120.76699219 221.37222656 -121.53398438 220.74445313 -122.32421875 220.09765625 C-141.58874351 203.91545545 -154.42439373 179.97532533 -161 156 C-161.33902344 154.82566406 -161.67804688 153.65132812 -162.02734375 152.44140625 C-166.79494018 132.38234845 -165.87549773 107.69833151 -160 88 C-159.79632813 87.31663574 -159.59265625 86.63327148 -159.3828125 85.92919922 C-154.12071717 69.07506519 -145.36995147 53.4477091 -134 40 C-133.37222656 39.23300781 -132.74445313 38.46601562 -132.09765625 37.67578125 C-115.91545545 18.41125649 -91.97532533 5.57560627 -68 -1 C-66.82566406 -1.33902344 -65.65132813 -1.67804688 -64.44140625 -2.02734375 C-44.38234845 -6.79494018 -19.69833151 -5.87549773 0 0 Z " fill="#010101" transform="translate(164,4)"/>
<path d="M0 0 C4.62 0 9.24 0 14 0 C16.67174517 6.99807365 19.3377506 13.9983088 22 21 C22.2980957 21.78262207 22.59619141 22.56524414 22.90332031 23.37158203 C25.41028323 29.96016606 27.88470976 36.54310018 30.0625 43.25 C31.28276465 46.98949918 32.63539309 50.60508613 34.1875 54.21875 C37.66052406 62.47774739 40.78412098 70.86528298 43.9375 79.25 C44.5382264 80.84251774 45.13913705 82.43496598 45.74023438 84.02734375 C46.922405 87.15957901 48.10073374 90.29322343 49.27685547 93.42773438 C50.41812268 96.46583409 51.57427982 99.49762512 52.74267578 102.52539062 C53.01849991 103.24563416 53.29432404 103.96587769 53.57850647 104.70794678 C54.09387662 106.0529887 54.61343922 107.39643553 55.13816833 108.737854 C56.61066643 112.59890431 57.30480152 115.82880914 58 120 C53.71 120 49.42 120 45 120 C44.5059668 118.68394775 44.01193359 117.36789551 43.50292969 116.01196289 C41.65685284 111.09638725 39.80721729 106.18215692 37.95654297 101.26831055 C37.15838144 99.14757824 36.3611657 97.0264897 35.56494141 94.9050293 C34.41561652 91.84327957 33.26281626 88.78285724 32.109375 85.72265625 C31.75816589 84.78478775 31.40695679 83.84691925 31.04510498 82.88063049 C29.13210297 77.8161268 27.08449548 72.85182414 24.85327148 67.91944885 C23.88804516 65.74815567 23.05356433 63.55816539 22.2890625 61.30859375 C22.01739258 60.51855957 21.74572266 59.72852539 21.46582031 58.91455078 C21.18834961 58.09712402 20.91087891 57.27969727 20.625 56.4375 C18.35714515 49.86168496 16.03199888 43.32178551 13.56445312 36.81811523 C10.69430702 29.23313265 7.91365613 21.61521049 5.125 14 C4.74535095 12.96350311 4.74535095 12.96350311 4.35803223 11.90606689 C2.90456857 7.93766494 1.45215575 3.96888119 0 0 Z " fill="#F7F7F7" transform="translate(173,73)"/>
<path d="M0 0 C4.29 0 8.58 0 13 0 C12.33328873 3.33355634 11.74081711 5.98383918 10.58203125 9.08203125 C10.30012939 9.8412085 10.01822754 10.60038574 9.7277832 11.38256836 C9.42573975 12.1844458 9.12369629 12.98632324 8.8125 13.8125 C8.50078857 14.64982666 8.18907715 15.48715332 7.86791992 16.34985352 C6.37117286 20.36511785 4.85944944 24.37467041 3.34375 28.3828125 C2.83318452 29.73431879 2.32276351 31.08587967 1.8125 32.4375 C1.56483887 33.09242432 1.31717773 33.74734863 1.06201172 34.42211914 C-0.40826776 38.33709668 -1.77269683 42.27224703 -3.0625 46.25 C-4.30741308 50.06793887 -5.69605414 53.76065822 -7.2734375 57.453125 C-10.19808443 64.40886833 -12.89300972 71.44306729 -15.5625 78.5 C-16.03107422 79.72847656 -16.49964844 80.95695312 -16.98242188 82.22265625 C-19.51857209 88.91241751 -21.90336735 95.62503071 -24.13110352 102.42333984 C-25.17978349 105.53313712 -26.38800641 108.54947858 -27.6875 111.5625 C-28.89119893 114.36864643 -30.03415774 117.10247323 -31 120 C-35.29 120 -39.58 120 -44 120 C-43.54915343 114.81526443 -42.18249127 110.65723466 -40.171875 105.87109375 C-38.4014581 101.53357234 -36.88739483 97.10983384 -35.34375 92.6875 C-34.35776128 89.98176352 -33.33240944 87.32256256 -32.25 84.65625 C-29.16404716 77.0021606 -26.356197 69.24192459 -23.5 61.5 C-17.03083739 43.9648758 -17.03083739 43.9648758 -13.81835938 36.05322266 C-12.61989728 33.04634132 -11.55881077 29.99588922 -10.5 26.9375 C-8.84859749 22.26105131 -7.06011352 17.74101089 -4.98046875 13.2421875 C-3.08876502 8.91613993 -1.57666033 4.44843449 0 0 Z " fill="#F7F7F7" transform="translate(151,73)"/>
<path d="M0 0 C4.29 0 8.58 0 13 0 C13 39.93 13 79.86 13 121 C8.71 121 4.42 121 0 121 C0 81.07 0 41.14 0 0 Z " fill="#F6F6F6" transform="translate(84,73)"/>
<path d="M0 0 C4.29 0 8.58 0 13 0 C13 39.93 13 79.86 13 121 C8.71 121 4.42 121 0 121 C0 81.07 0 41.14 0 0 Z " fill="#F5F5F5" transform="translate(55,73)"/>
<path d="M0 0 C3.96 0 7.92 0 12 0 C12 39.6 12 79.2 12 120 C8.04 120 4.08 120 0 120 C0 80.4 0 40.8 0 0 Z " fill="#FEFEFE" transform="translate(27,73)"/>
</svg>
