<?xml version="1.0" standalone="no"?>
<!DOCTYPE svg PUBLIC "-//W3C//DTD SVG 20010904//EN"
 "http://www.w3.org/TR/2001/REC-SVG-20010904/DTD/svg10.dtd">
<svg version="1.0" xmlns="http://www.w3.org/2000/svg"
 width="70.000000pt" height="70.000000pt" viewBox="0 0 70.000000 70.000000"
 preserveAspectRatio="xMidYMid meet">

<g transform="translate(0.000000,70.000000) scale(0.100000,-0.100000)"
fill="#000000" stroke="none">
<path d="M284 649 c-63 -15 -144 -69 -181 -120 -112 -157 -58 -371 115 -456
118 -58 269 -29 357 69 101 111 107 273 16 394 -65 87 -203 138 -307 113z m36
-234 l30 29 30 -29 30 -29 28 27 28 27 27 -28 27 -28 -28 -27 -28 -27 -27 27
-27 27 -30 -29 -30 -29 -30 29 -30 29 -28 -27 -28 -27 -27 27 -27 27 27 28 27
28 28 -27 28 -27 30 29z m60 -120 l24 -26 -27 -27 -27 -27 -27 27 -27 27 24
26 c13 14 26 25 30 25 4 0 17 -11 30 -25z"/>
</g>
</svg>
