<?xml version="1.0" encoding="UTF-8"?>
<svg version="1.1" xmlns="http://www.w3.org/2000/svg" width="460" height="409">
<path d="M0 0 C1.5731942 1.46778755 3.13552443 2.94729461 4.6875 4.4375 C6.02361328 5.69626953 6.02361328 5.69626953 7.38671875 6.98046875 C22.81458072 21.89191693 40.80850592 44.99207679 45.6875 66.4375 C46.8940625 66.50066406 48.100625 66.56382812 49.34375 66.62890625 C64.79715036 67.70945084 64.79715036 67.70945084 70.3046875 73.7109375 C70.76101563 74.28070313 71.21734375 74.85046875 71.6875 75.4375 C72.3475 76.0975 73.0075 76.7575 73.6875 77.4375 C74.3475 78.0975 75.0075 78.7575 75.6875 79.4375 C76.28304688 79.91445312 76.87859375 80.39140625 77.4921875 80.8828125 C88.79577439 90.05364715 93.33836895 103.21942873 95.37109375 117.3203125 C97.11416805 134.49282223 94.80742747 153.20520772 84.25 167.375 C82.16295857 169.8975979 80.05714056 172.08445349 77.5 174.125 C74.46779545 176.61814596 72.83615423 179.17986294 70.6875 182.4375 C66.01287088 187.53799575 59.75070672 188.00148466 53.25 189.1875 C52.13044922 189.40792969 51.01089844 189.62835938 49.85742188 189.85546875 C44.70851607 190.83941395 39.94508036 191.55646964 34.6875 191.4375 C34.55601562 192.66533203 34.55601562 192.66533203 34.421875 193.91796875 C33.52133558 198.23385182 31.8619461 201.80558658 29.9375 205.75 C29.57333984 206.50619629 29.20917969 207.26239258 28.83398438 208.04150391 C20.72507351 224.75983125 10.33241171 239.74013787 -4.3125 251.4375 C-4.8576123 251.87320312 -5.40272461 252.30890625 -5.96435547 252.7578125 C-37.20197302 277.50310022 -73.76162598 289.14811088 -113.703125 284.9375 C-130.32388635 282.83965691 -145.4259349 278.03337832 -160.3125 270.4375 C-161.79363281 269.695 -161.79363281 269.695 -163.3046875 268.9375 C-196.40312885 251.68505465 -219.00843496 221.42015584 -230.3125 186.4375 C-230.993125 186.6025 -231.67375 186.7675 -232.375 186.9375 C-239.98219629 188.23234192 -246.92905618 186.73741649 -254.375 185.1875 C-255.43783203 184.98253906 -256.50066406 184.77757812 -257.59570312 184.56640625 C-264.79124592 183.08325252 -270.06751851 181.80497223 -274.3125 175.4375 C-274.3125 174.4475 -274.3125 173.4575 -274.3125 172.4375 C-275.1478125 172.0971875 -275.1478125 172.0971875 -276 171.75 C-285.51779301 166.34800937 -291.16957355 154.5284712 -294.22265625 144.42578125 C-298.90519594 125.67384325 -297.17744628 105.71535564 -288.3125 88.4375 C-284.95283251 82.92801758 -280.67470046 78.08600753 -275.3125 74.4375 C-274.6525 74.4375 -273.9925 74.4375 -273.3125 74.4375 C-273.085625 73.880625 -272.85875 73.32375 -272.625 72.75 C-270.30719713 68.66625209 -267.71893888 66.03598463 -263.375 64.1875 C-257.50458047 62.79851681 -251.31447961 62.7538318 -245.3125 62.4375 C-245.23902344 61.79683594 -245.16554687 61.15617187 -245.08984375 60.49609375 C-243.98580638 56.15206733 -241.97001996 52.44578454 -239.875 48.5 C-239.42906494 47.65824219 -238.98312988 46.81648438 -238.52368164 45.94921875 C-234.37700205 38.28619562 -229.63377551 31.32233212 -224.3125 24.4375 C-223.6421875 23.54417969 -222.971875 22.65085938 -222.28125 21.73046875 C-197.35554564 -10.24154049 -160.79704891 -33.17541253 -120.24609375 -38.22265625 C-75.42644985 -43.25367726 -33.83994227 -29.75581131 0 0 Z M-194.05859375 10.39453125 C-195.62354887 11.8130261 -197.24230725 13.17348036 -198.8984375 14.484375 C-209.36326567 22.95106446 -217.30883853 35.50274096 -224.3125 46.875 C-224.78139648 47.63216309 -225.25029297 48.38932617 -225.73339844 49.16943359 C-228.14671153 53.16709294 -230.04744144 56.90197754 -231.3125 61.4375 C-230.27609375 61.77523437 -229.2396875 62.11296875 -228.171875 62.4609375 C-226.8020304 62.91129737 -225.43224166 63.36182714 -224.0625 63.8125 C-223.38058594 64.03421875 -222.69867188 64.2559375 -221.99609375 64.484375 C-218.6368968 65.59323613 -215.41508135 66.72628245 -212.3125 68.4375 C-211.58546875 67.40302734 -211.58546875 67.40302734 -210.84375 66.34765625 C-204.74883566 57.80305519 -198.52430185 50.00694148 -190.3125 43.4375 C-189.466875 42.57125 -188.62125 41.705 -187.75 40.8125 C-185.38740602 38.51048535 -183.13568706 37.10245647 -180.3125 35.4375 C-179.673125 34.798125 -179.03375 34.15875 -178.375 33.5 C-174.53965936 29.66465936 -170.32449504 27.3651904 -165.3125 25.4375 C-164.4875 24.9425 -163.6625 24.4475 -162.8125 23.9375 C-160.37153713 22.47292228 -157.97604487 21.42681667 -155.3125 20.4375 C-155.3125 19.7775 -155.3125 19.1175 -155.3125 18.4375 C-154.29414063 18.32019531 -153.27578125 18.20289063 -152.2265625 18.08203125 C-148.44496175 17.45931256 -145.27191259 16.45576467 -141.6875 15.125 C-107.19791409 3.29195237 -68.84450971 5.84147797 -35.91333008 21.27636719 C-14.33729351 31.90842376 5.19285365 47.44686344 18.6875 67.4375 C20.10500563 67.32240339 21.52151169 67.19496342 22.9375 67.0625 C24.12085938 66.95808594 24.12085938 66.95808594 25.328125 66.8515625 C27.78312126 66.42071879 29.49620893 65.58974715 31.6875 64.4375 C23.0786007 46.85030882 13.26753461 31.60592433 -0.3125 17.4375 C-1.12847656 16.55835938 -1.94445312 15.67921875 -2.78515625 14.7734375 C-19.72430293 -2.93907228 -41.86530709 -15.6238408 -65.375 -22.3125 C-66.07028809 -22.51133789 -66.76557617 -22.71017578 -67.48193359 -22.91503906 C-112.71271168 -35.08653393 -160.23397158 -21.02631066 -194.05859375 10.39453125 Z " fill="#85E841" transform="translate(340.3125,123.5625)"/>
<path d="M0 0 C1.53485851 1.30678717 3.02935758 2.66097471 4.5078125 4.03125 C1.34249032 4.03125 0.23117413 3.5431148 -2.4921875 2.09375 C-4.85238528 0.84660003 -6.94299246 -0.11901832 -9.4921875 -0.96875 C-9.4921875 -1.62875 -9.4921875 -2.28875 -9.4921875 -2.96875 C-11.4721875 -3.29875 -13.4521875 -3.62875 -15.4921875 -3.96875 C-15.59233617 1.43927833 -15.26231322 6.57012542 -14.515625 11.9296875 C-14.50789062 12.62320313 -14.50015625 13.31671875 -14.4921875 14.03125 C-15.4821875 15.02125 -15.4821875 15.02125 -16.4921875 16.03125 C-16.24324723 20.5121749 -14.2319732 23.56622691 -11.4921875 27.03125 C-10.5021875 27.03125 -9.5121875 27.03125 -8.4921875 27.03125 C-8.1621875 26.37125 -7.8321875 25.71125 -7.4921875 25.03125 C-6.8321875 25.03125 -6.1721875 25.03125 -5.4921875 25.03125 C-4.4921875 28.03125 -4.4921875 28.03125 -5.4296875 30.21875 C-5.7803125 30.816875 -6.1309375 31.415 -6.4921875 32.03125 C-5.9971875 32.65 -5.5021875 33.26875 -4.9921875 33.90625 C-3.4921875 36.03125 -3.4921875 36.03125 -3.4921875 38.03125 C-4.1109375 38.27875 -4.7296875 38.52625 -5.3671875 38.78125 C-7.84287437 40.23753639 -8.44343752 41.40937506 -9.4921875 44.03125 C-10.4821875 44.03125 -11.4721875 44.03125 -12.4921875 44.03125 C-12.4921875 42.71125 -12.4921875 41.39125 -12.4921875 40.03125 C-13.0284375 39.825 -13.5646875 39.61875 -14.1171875 39.40625 C-17.39485933 37.50865052 -20.27354035 35.12256503 -22.4921875 32.03125 C-22.4921875 30.71125 -22.4921875 29.39125 -22.4921875 28.03125 C-23.4821875 28.03125 -24.4721875 28.03125 -25.4921875 28.03125 C-25.4921875 27.37125 -25.4921875 26.71125 -25.4921875 26.03125 C-26.4821875 26.03125 -27.4721875 26.03125 -28.4921875 26.03125 C-28.1621875 28.67125 -27.8321875 31.31125 -27.4921875 34.03125 C-28.8121875 34.03125 -30.1321875 34.03125 -31.4921875 34.03125 C-31.4921875 34.69125 -31.4921875 35.35125 -31.4921875 36.03125 C-32.1521875 36.03125 -32.8121875 36.03125 -33.4921875 36.03125 C-32.5021875 39.49625 -32.5021875 39.49625 -31.4921875 43.03125 C-28.5221875 42.53625 -28.5221875 42.53625 -25.4921875 42.03125 C-25.4921875 40.05125 -25.4921875 38.07125 -25.4921875 36.03125 C-24.1721875 36.36125 -22.8521875 36.69125 -21.4921875 37.03125 C-21.4921875 37.69125 -21.4921875 38.35125 -21.4921875 39.03125 C-22.1521875 39.03125 -22.8121875 39.03125 -23.4921875 39.03125 C-23.3271875 39.794375 -23.1621875 40.5575 -22.9921875 41.34375 C-22.4921875 44.03125 -22.4921875 44.03125 -22.4921875 47.03125 C-17.0471875 46.04125 -17.0471875 46.04125 -11.4921875 45.03125 C-12.4921875 48.03125 -12.4921875 48.03125 -15.4921875 50.03125 C-18.34073788 49.72162496 -21.04564563 49.13006875 -23.83984375 48.51171875 C-33.61454107 46.74104457 -41.87970068 48.04997384 -50.4921875 53.03125 C-57.67892684 58.18783698 -62.59184703 64.13213776 -66.4921875 72.03125 C-66.86988281 72.77632813 -67.24757813 73.52140625 -67.63671875 74.2890625 C-71.19451265 82.15085427 -72.14928461 90.57096177 -73.4921875 99.03125 C-66.8921875 99.03125 -60.2921875 99.03125 -53.4921875 99.03125 C-53.4921875 96.39125 -53.4921875 93.75125 -53.4921875 91.03125 C-52.05736371 82.48523814 -47.93338924 74.62778554 -41.3046875 68.96875 C-36.80662708 66.03391685 -31.65906313 66.43144686 -26.4921875 67.03125 C-25.8321875 67.36125 -25.1721875 67.69125 -24.4921875 68.03125 C-24.078125 70.53515625 -24.078125 70.53515625 -23.8671875 73.59375 C-23.75503906 75.11162109 -23.75503906 75.11162109 -23.640625 76.66015625 C-23.56714844 77.83384766 -23.56714844 77.83384766 -23.4921875 79.03125 C-21.8421875 79.03125 -20.1921875 79.03125 -18.4921875 79.03125 C-17.64928129 81.39138739 -17.35351301 82.62783332 -18.1796875 85.03125 C-19.4921875 87.03125 -19.4921875 87.03125 -21.4921875 88.84375 C-24.07574025 91.66951082 -24.54223749 94.3671571 -25.4921875 98.03125 C-26.1521875 98.69125 -26.8121875 99.35125 -27.4921875 100.03125 C-28.4821875 100.03125 -29.4721875 100.03125 -30.4921875 100.03125 C-30.8221875 101.35125 -31.1521875 102.67125 -31.4921875 104.03125 C-32.1521875 104.03125 -32.8121875 104.03125 -33.4921875 104.03125 C-33.7809375 104.93875 -34.0696875 105.84625 -34.3671875 106.78125 C-35.4921875 110.03125 -35.4921875 110.03125 -36.5625 111.86328125 C-38.12064697 115.49677523 -37.5244386 119.1715431 -37.3671875 123.05859375 C-37.49817169 126.17356148 -38.30240323 128.18443824 -39.4921875 131.03125 C-38.75360938 134.97033333 -37.81399557 136.71729091 -34.9296875 139.53125 C-31.97381983 142.56290915 -31.4921875 143.82038633 -31.4921875 148.03125 C-33.28374722 150.53384468 -34.84493523 152.33569228 -37.0546875 154.40625 C-37.64314453 154.97206787 -38.23160156 155.53788574 -38.83789062 156.12084961 C-57.90469075 173.79799274 -80.80187606 174.76610473 -105.4921875 174.03125 C-120.65600888 173.23195708 -134.32706808 166.82758878 -144.7421875 155.78125 C-150.90959448 148.4698885 -154.81466372 139.79240959 -158.4921875 131.03125 C-159.1521875 133.34125 -159.8121875 135.65125 -160.4921875 138.03125 C-161.0903125 138.093125 -161.6884375 138.155 -162.3046875 138.21875 C-165.36362208 139.3549257 -166.04259849 141.20455142 -167.4921875 144.03125 C-168.3996875 143.86625 -169.3071875 143.70125 -170.2421875 143.53125 C-173.60306253 142.92987854 -173.60306253 142.92987854 -177.4921875 143.03125 C-177.4921875 142.37125 -177.4921875 141.71125 -177.4921875 141.03125 C-178.4821875 140.70125 -179.4721875 140.37125 -180.4921875 140.03125 C-180.8221875 136.40125 -181.1521875 132.77125 -181.4921875 129.03125 C-184.1321875 128.70125 -186.7721875 128.37125 -189.4921875 128.03125 C-189.35069761 126.4266944 -189.20383064 124.82261233 -189.0546875 123.21875 C-188.97347656 122.32542969 -188.89226562 121.43210937 -188.80859375 120.51171875 C-188.4921875 118.03125 -188.4921875 118.03125 -187.4921875 115.03125 C-189.4721875 115.36125 -191.4521875 115.69125 -193.4921875 116.03125 C-193.6159375 116.815 -193.7396875 117.59875 -193.8671875 118.40625 C-194.4921875 121.03125 -194.4921875 121.03125 -196.4921875 123.03125 C-198.4296875 123.09375 -198.4296875 123.09375 -200.4921875 122.03125 C-204.42045777 115.85825385 -203.99271124 109.15408786 -203.4921875 102.03125 C-202.4921875 99.03125 -202.4921875 99.03125 -199.4921875 97.03125 C-197.44921875 96.8359375 -197.44921875 96.8359375 -195.3046875 96.90625 C-194.0465625 96.9475 -192.7884375 96.98875 -191.4921875 97.03125 C-191.4921875 96.37125 -191.4921875 95.71125 -191.4921875 95.03125 C-186.88829854 94.71004844 -184.10298007 95.03945044 -180.4921875 98.03125 C-179.7421875 100.46875 -179.7421875 100.46875 -179.4921875 103.03125 C-179.16735332 104.36667939 -178.837102 105.70086551 -178.4921875 107.03125 C-177.8321875 106.70125 -177.1721875 106.37125 -176.4921875 106.03125 C-176.8221875 102.40125 -177.1521875 98.77125 -177.4921875 95.03125 C-179.4721875 95.03125 -181.4521875 95.03125 -183.4921875 95.03125 C-184.2860238 81.16116575 -180.87000775 71.12476198 -172.4921875 60.03125 C-166.94507462 53.84307926 -158.76316194 49.13819244 -150.4921875 48.03125 C-143.39508773 48.06677991 -137.7854456 48.67484568 -131.4921875 52.03125 C-128.94403865 52.39527126 -126.42949673 52.59054719 -123.859375 52.72265625 C-121.34700231 53.05017678 -119.69250846 53.81373907 -117.4921875 55.03125 C-117.1621875 55.03125 -116.8321875 55.03125 -116.4921875 55.03125 C-116.4921875 52.72125 -116.4921875 50.41125 -116.4921875 48.03125 C-118.4721875 47.70125 -120.4521875 47.37125 -122.4921875 47.03125 C-121.5021875 44.06125 -120.5121875 41.09125 -119.4921875 38.03125 C-120.4821875 38.03125 -121.4721875 38.03125 -122.4921875 38.03125 C-122.4921875 37.04125 -122.4921875 36.05125 -122.4921875 35.03125 C-124.4721875 34.70125 -126.4521875 34.37125 -128.4921875 34.03125 C-129.4821875 30.07125 -130.4721875 26.11125 -131.4921875 22.03125 C-133.4721875 23.68125 -135.4521875 25.33125 -137.4921875 27.03125 C-138.8121875 26.37125 -140.1321875 25.71125 -141.4921875 25.03125 C-141.2446875 24.45375 -140.9971875 23.87625 -140.7421875 23.28125 C-140.23312402 20.89725165 -140.23312402 20.89725165 -141.9921875 18.78125 C-145.28610242 16.47550956 -147.55924793 16.72871619 -151.4921875 17.03125 C-151.9665625 18.124375 -152.4409375 19.2175 -152.9296875 20.34375 C-153.19652344 20.95863281 -153.46335938 21.57351562 -153.73828125 22.20703125 C-154.75018259 24.6555179 -155.47543071 26.89719566 -155.8046875 29.53125 C-156.66001931 32.64154747 -157.73931265 33.44626145 -160.4921875 35.03125 C-161.1521875 35.03125 -161.8121875 35.03125 -162.4921875 35.03125 C-162.4921875 37.34125 -162.4921875 39.65125 -162.4921875 42.03125 C-164.4721875 43.02125 -164.4721875 43.02125 -166.4921875 44.03125 C-166.8221875 43.04125 -167.1521875 42.05125 -167.4921875 41.03125 C-166.8321875 41.03125 -166.1721875 41.03125 -165.4921875 41.03125 C-165.9871875 37.56625 -165.9871875 37.56625 -166.4921875 34.03125 C-167.575 33.8765625 -167.575 33.8765625 -168.6796875 33.71875 C-171.8180138 32.95160357 -173.90863235 31.96891636 -176.4921875 30.03125 C-177.81990968 27.09129375 -177.61609644 25.01015427 -176.4921875 22.03125 C-174.3828125 19.92578125 -174.3828125 19.92578125 -171.7421875 17.84375 C-170.88109375 17.14894531 -170.02 16.45414063 -169.1328125 15.73828125 C-166.45094351 14.00458784 -164.65344432 13.30544064 -161.4921875 13.03125 C-160.5021875 13.52625 -160.5021875 13.52625 -159.4921875 14.03125 C-157.48418294 13.75012936 -155.48204699 13.42057033 -153.4921875 13.03125 C-154.1521875 11.71125 -154.8121875 10.39125 -155.4921875 9.03125 C-154.8321875 9.03125 -154.1721875 9.03125 -153.4921875 9.03125 C-153.4921875 8.37125 -153.4921875 7.71125 -153.4921875 7.03125 C-152.8940625 6.804375 -152.2959375 6.5775 -151.6796875 6.34375 C-149.27307335 5.13464849 -149.27307335 5.13464849 -147.9296875 2.40625 C-147.4553125 1.6225 -146.9809375 0.83875 -146.4921875 0.03125 C-143.4921875 0.03125 -143.4921875 0.03125 -140.4921875 2.03125 C-141.1521875 2.69125 -141.8121875 3.35125 -142.4921875 4.03125 C-140.8421875 4.03125 -139.1921875 4.03125 -137.4921875 4.03125 C-137.4921875 4.69125 -137.4921875 5.35125 -137.4921875 6.03125 C-138.8121875 6.36125 -140.1321875 6.69125 -141.4921875 7.03125 C-141.4921875 7.69125 -141.4921875 8.35125 -141.4921875 9.03125 C-143.8021875 9.69125 -146.1121875 10.35125 -148.4921875 11.03125 C-147.4196875 11.27875 -146.3471875 11.52625 -145.2421875 11.78125 C-141.39888073 13.06235226 -140.17333447 14.16519634 -137.4921875 17.03125 C-135.3539909 17.8185178 -135.3539909 17.8185178 -133.4921875 18.03125 C-133.8221875 17.04125 -134.1521875 16.05125 -134.4921875 15.03125 C-133.1721875 15.03125 -131.8521875 15.03125 -130.4921875 15.03125 C-130.1621875 13.71125 -129.8321875 12.39125 -129.4921875 11.03125 C-130.1521875 11.03125 -130.8121875 11.03125 -131.4921875 11.03125 C-131.4921875 9.71125 -131.4921875 8.39125 -131.4921875 7.03125 C-128.4921875 8.03125 -128.4921875 8.03125 -126.4921875 10.03125 C-125.1721875 9.04125 -123.8521875 8.05125 -122.4921875 7.03125 C-124.61999329 4.69066363 -126.60780971 3.32424694 -129.4921875 2.03125 C-128.5021875 1.70125 -127.5121875 1.37125 -126.4921875 1.03125 C-128.53020885 -3.02899321 -128.53020885 -3.02899321 -132.4921875 -4.96875 C-132.4921875 -6.61875 -132.4921875 -8.26875 -132.4921875 -9.96875 C-136.4521875 -9.96875 -140.4121875 -9.96875 -144.4921875 -9.96875 C-144.1621875 -10.62875 -143.8321875 -11.28875 -143.4921875 -11.96875 C-139.8621875 -11.96875 -136.2321875 -11.96875 -132.4921875 -11.96875 C-132.1621875 -12.62875 -131.8321875 -13.28875 -131.4921875 -13.96875 C-133.8021875 -13.96875 -136.1121875 -13.96875 -138.4921875 -13.96875 C-138.4921875 -14.62875 -138.4921875 -15.28875 -138.4921875 -15.96875 C-141.1321875 -15.63875 -143.7721875 -15.30875 -146.4921875 -14.96875 C-146.8221875 -13.97875 -147.1521875 -12.98875 -147.4921875 -11.96875 C-146.8321875 -11.96875 -146.1721875 -11.96875 -145.4921875 -11.96875 C-145.90640719 -7.13618695 -147.95632736 -5.14195782 -151.4921875 -1.96875 C-150.5021875 -1.63875 -149.5121875 -1.30875 -148.4921875 -0.96875 C-149.8671875 0.53125 -149.8671875 0.53125 -151.4921875 2.03125 C-152.1521875 2.03125 -152.8121875 2.03125 -153.4921875 2.03125 C-154.4921875 -2.84375 -154.4921875 -2.84375 -154.4921875 -3.96875 C-157.18944269 -2.08067137 -158.62435179 -0.77050356 -160.4921875 2.03125 C-160.9871875 1.04125 -160.9871875 1.04125 -161.4921875 0.03125 C-162.3584375 1.02125 -162.3584375 1.02125 -163.2421875 2.03125 C-165.4921875 4.03125 -165.4921875 4.03125 -169.4921875 4.03125 C-169.1621875 3.04125 -168.8321875 2.05125 -168.4921875 1.03125 C-167.5021875 1.03125 -166.5121875 1.03125 -165.4921875 1.03125 C-165.1621875 0.37125 -164.8321875 -0.28875 -164.4921875 -0.96875 C-163.8321875 -0.96875 -163.1721875 -0.96875 -162.4921875 -0.96875 C-162.1621875 -2.28875 -161.8321875 -3.60875 -161.4921875 -4.96875 C-160.8321875 -4.96875 -160.1721875 -4.96875 -159.4921875 -4.96875 C-159.7603125 -5.525625 -160.0284375 -6.0825 -160.3046875 -6.65625 C-160.4921875 -8.96875 -160.4921875 -8.96875 -158.6171875 -11.53125 C-154.79021142 -14.51629134 -151.13183162 -15.72544667 -146.4921875 -16.96875 C-146.4921875 -17.62875 -146.4921875 -18.28875 -146.4921875 -18.96875 C-145.6878125 -19.20658203 -145.6878125 -19.20658203 -144.8671875 -19.44921875 C-144.0834375 -19.68253906 -143.2996875 -19.91585937 -142.4921875 -20.15625 C-141.57566406 -20.42824219 -140.65914062 -20.70023438 -139.71484375 -20.98046875 C-137.42201159 -21.68360395 -135.13892575 -22.41886612 -132.86328125 -23.17578125 C-87.39014161 -38.28172239 -37.66633536 -29.75522417 0 0 Z " fill="#3BBCEC" transform="translate(331.4921875,160.96875)"/>
<path d="M0 0 C1.5731942 1.46778755 3.13552443 2.94729461 4.6875 4.4375 C6.02361328 5.69626953 6.02361328 5.69626953 7.38671875 6.98046875 C22.81458072 21.89191693 40.80850592 44.99207679 45.6875 66.4375 C46.8940625 66.50066406 48.100625 66.56382812 49.34375 66.62890625 C64.79715036 67.70945084 64.79715036 67.70945084 70.3046875 73.7109375 C70.76101563 74.28070313 71.21734375 74.85046875 71.6875 75.4375 C72.3475 76.0975 73.0075 76.7575 73.6875 77.4375 C74.3475 78.0975 75.0075 78.7575 75.6875 79.4375 C76.28304688 79.91445312 76.87859375 80.39140625 77.4921875 80.8828125 C88.79577439 90.05364715 93.33836895 103.21942873 95.37109375 117.3203125 C97.11416805 134.49282223 94.80742747 153.20520772 84.25 167.375 C82.16295857 169.8975979 80.05714056 172.08445349 77.5 174.125 C74.46779545 176.61814596 72.83615423 179.17986294 70.6875 182.4375 C66.02750567 187.48010439 59.8944684 188.03135033 53.4375 189.25 C52.34308594 189.47880859 51.24867188 189.70761719 50.12109375 189.94335938 C35.43573637 192.81887546 35.43573637 192.81887546 29.27734375 188.90625 C25.66383503 184.60079281 23.90651318 181.60244027 24.24609375 175.90625 C24.6875 173.4375 24.6875 173.4375 25.69848633 169.78027344 C26.72926516 165.67539837 26.97750229 161.7055385 26.953125 157.484375 C26.95599014 156.75041504 26.95885529 156.01645508 26.96180725 155.26025391 C26.96614875 152.90245992 26.95370098 150.54523695 26.9375 148.1875 C26.93406586 147.38203735 26.93063171 146.57657471 26.92709351 145.7467041 C26.81520002 123.43131234 26.50374036 102.15192713 13.26171875 83.3046875 C11.43563391 79.97876622 11.11654548 78.17419345 11.6875 74.4375 C13.05078125 72.42578125 13.05078125 72.42578125 15 70.75 C15.92232422 69.90888672 15.92232422 69.90888672 16.86328125 69.05078125 C21.1839293 66.58269322 25.87443696 65.5965984 30.6875 64.4375 C22.07585442 46.84469842 12.2620211 31.6180265 -1.3125 17.4375 C-2.055 16.63183594 -2.7975 15.82617188 -3.5625 14.99609375 C-20.11430778 -2.39963844 -42.40309401 -14.77684465 -65.375 -21.3125 C-66.07028809 -21.51133789 -66.76557617 -21.71017578 -67.48193359 -21.91503906 C-102.52952444 -31.34626245 -138.3591965 -24.68708146 -169.6171875 -7.328125 C-181.50791934 -0.46972921 -191.76115857 8.62801421 -201.3125 18.4375 C-201.79589844 18.87578125 -202.27929688 19.3140625 -202.77734375 19.765625 C-214.89250422 31.05410393 -224.11684965 46.66393038 -231.3125 61.4375 C-230.66023438 61.54707031 -230.00796875 61.65664062 -229.3359375 61.76953125 C-223.27843753 62.86845824 -217.81656546 63.93343454 -213.3125 68.4375 C-212.23507575 74.90204553 -213.67094519 78.59621034 -217.0625 84.0625 C-221.52608367 91.26965523 -223.55950344 98.09917243 -225.3125 106.4375 C-225.52519531 107.35917969 -225.73789063 108.28085938 -225.95703125 109.23046875 C-228.50965902 121.36922384 -228.40241006 134.02290167 -228.5 146.375 C-228.51305176 147.32149414 -228.52610352 148.26798828 -228.53955078 149.24316406 C-228.54634034 154.77374206 -227.97250242 159.81014694 -226.77758789 165.20727539 C-225.4937147 171.36380116 -225.33447063 177.33654801 -228 183.0625 C-231.29103288 186.44247971 -233.54741784 187.32866115 -238.2265625 187.6171875 C-243.71036942 187.56126686 -249.02715081 186.30068589 -254.375 185.1875 C-255.43783203 184.98253906 -256.50066406 184.77757812 -257.59570312 184.56640625 C-264.79124592 183.08325252 -270.06751851 181.80497223 -274.3125 175.4375 C-274.3125 174.4475 -274.3125 173.4575 -274.3125 172.4375 C-275.1478125 172.0971875 -275.1478125 172.0971875 -276 171.75 C-285.51779301 166.34800937 -291.16957355 154.5284712 -294.22265625 144.42578125 C-298.90519594 125.67384325 -297.17744628 105.71535564 -288.3125 88.4375 C-284.95283251 82.92801758 -280.67470046 78.08600753 -275.3125 74.4375 C-274.6525 74.4375 -273.9925 74.4375 -273.3125 74.4375 C-273.085625 73.880625 -272.85875 73.32375 -272.625 72.75 C-270.30719713 68.66625209 -267.71893888 66.03598463 -263.375 64.1875 C-257.50458047 62.79851681 -251.31447961 62.7538318 -245.3125 62.4375 C-245.23902344 61.79683594 -245.16554687 61.15617187 -245.08984375 60.49609375 C-243.98580638 56.15206733 -241.97001996 52.44578454 -239.875 48.5 C-239.42906494 47.65824219 -238.98312988 46.81648438 -238.52368164 45.94921875 C-234.37700205 38.28619562 -229.63377551 31.32233212 -224.3125 24.4375 C-223.6421875 23.54417969 -222.971875 22.65085938 -222.28125 21.73046875 C-197.35554564 -10.24154049 -160.79704891 -33.17541253 -120.24609375 -38.22265625 C-75.42644985 -43.25367726 -33.83994227 -29.75581131 0 0 Z " fill="#231F20" transform="translate(340.3125,123.5625)"/>
<path d="M0 0 C2.44469489 2.44469489 2.94572591 4.40524824 4 7.6875 C4.35578125 8.76644531 4.7115625 9.84539062 5.078125 10.95703125 C6 14 6 14 6.75 17.875 C8.540906 22.35226501 11.69688615 24.88333319 16 27 C17.66641173 27.02915006 19.33367333 27.03366317 21 27 C21.433125 27.598125 21.86625 28.19625 22.3125 28.8125 C24.53558434 31.694276 26.74723249 32.16816468 30.16015625 33.19140625 C32 34 32 34 34 37 C34 37.99 34 38.98 34 40 C34.680625 40.2475 35.36125 40.495 36.0625 40.75 C39.56865083 42.24197908 42.71620368 44.06835511 46 46 C46.33 44.68 46.66 43.36 47 42 C50.63201262 45.86633601 51.80671378 48.68462908 52 54 C51.0625 56.4375 51.0625 56.4375 50 58 C49.34 58 48.68 58 48 58 C48.99041466 66.0883864 49.85365545 71.39999719 56 77 C57.81304578 79.02025101 59.58173982 81.07469291 61.3515625 83.1328125 C64.21002594 86.37059811 66.53248837 88.39621268 70.4375 90.3125 C74.68328981 92.65215727 76.87532194 94.50548873 79 99 C79.78584821 101.97347971 80.47102933 104.96098703 81.1484375 107.9609375 C82.20538772 111.73298919 83.85606749 114.77408742 85.87890625 118.10546875 C87 120 87 120 88 122.75 C89.36774821 125.82743348 91.60827413 127.67121429 94 130 C94 130.66 94 131.32 94 132 C94.66 132 95.32 132 96 132 C96 132.99 96 133.98 96 135 C96.57621094 135.27585937 97.15242188 135.55171875 97.74609375 135.8359375 C100.67162113 137.34686845 103.35710995 139.15654519 106.09765625 140.9765625 C108.08029422 142.23688814 108.08029422 142.23688814 111 142 C110.175 141.401875 109.35 140.80375 108.5 140.1875 C107.675 139.465625 106.85 138.74375 106 138 C106 137.01 106 136.02 106 135 C105.01 134.67 104.02 134.34 103 134 C103 132.35 103 130.7 103 129 C102.34 128.67 101.68 128.34 101 128 C101.66 127.67 102.32 127.34 103 127 C103 126.34 103 125.68 103 125 C104.32 124.67 105.64 124.34 107 124 C107 122.68 107 121.36 107 120 C107.99 119.67 108.98 119.34 110 119 C111.41833058 117.28195261 111.41833058 117.28195261 112.625 115.1875 C113.05039063 114.50042969 113.47578125 113.81335938 113.9140625 113.10546875 C114.97210456 111.05408504 115.48283566 109.23607836 116 107 C116.65371582 107.02094727 117.30743164 107.04189453 117.98095703 107.06347656 C137.71236653 107.61166765 155.72832408 105.91836705 171.875 93.25 C183.89247513 81.77739779 189.29575669 66.75392891 193 51 C193.78503906 50.95101562 194.57007813 50.90203125 195.37890625 50.8515625 C202.21860867 50.43257782 202.21860867 50.43257782 208.875 48.9375 C212.08212753 47.97536174 214.67290282 47.83770258 218 48 C218.33 49.32 218.66 50.64 219 52 C220.98 52 222.96 52 225 52 C224.125 58.875 224.125 58.875 223 60 C222.97350953 63.52701742 223.02886245 67.04108682 223.12695312 70.56640625 C223.23124126 77.67026873 221.60345954 81.50554829 217 87 C216.67 87.66 216.34 88.32 216 89 C215.34 89 214.68 89 214 89 C213.34 92.96 212.68 96.92 212 101 C211.34 101 210.68 101 210 101 C209.7215625 101.71800781 209.443125 102.43601562 209.15625 103.17578125 C208.03723321 105.90905537 206.81257619 108.54233883 205.5 111.1875 C205.0771875 112.04730469 204.654375 112.90710938 204.21875 113.79296875 C203 116 203 116 201 118 C206.02391206 118.40013459 208.50575797 117.46785718 212.625 114.625 C217.82784586 111.0835671 217.82784586 111.0835671 220.27734375 109.89453125 C222.17745966 109.12589067 222.17745966 109.12589067 222.9375 107.0625 C224 105 224 105 226.4375 103.5625 C229.13730248 102.19308476 229.13730248 102.19308476 230.390625 99.6328125 C232.09698251 96.84134414 233.7677234 95.338652 236.3125 93.3125 C242.32763716 88.11760881 245.78900535 82.02528401 248.8125 74.75 C251.63747087 68.02099214 255.97089613 62.05226501 260 56 C261.46242734 60.38728201 259.31485923 63.19720677 257.375 67.125 C256.81522461 68.27959717 256.81522461 68.27959717 256.24414062 69.45751953 C255.17597845 71.64521563 254.09215369 73.82420014 253 76 C252.54882812 76.90234375 252.09765625 77.8046875 251.6328125 78.734375 C244.67645725 91.87948768 234.60069281 103.73415344 223 113 C222.18233154 113.65355469 222.18233154 113.65355469 221.34814453 114.3203125 C190.11052698 139.06560022 153.55087402 150.71061088 113.609375 146.5 C96.98861365 144.40215691 81.8865651 139.59587832 67 132 C66.01257813 131.505 65.02515625 131.01 64.0078125 130.5 C34.08041632 114.90045072 10.90788267 87.38728608 -0.5625 55.8125 C-0.95852417 54.73367554 -0.95852417 54.73367554 -1.36254883 53.63305664 C-3.52464268 47.33276164 -3.52464268 47.33276164 -2 44 C-1.34 43.01 -0.68 42.02 0 41 C0.58362681 35.36113512 0.3102498 29.76240808 -1 24.25 C-2.62359746 17.27539118 -2.15886824 10.11376688 -2 3 C-1.67 3 -1.34 3 -1 3 C-0.34 5.31 0.32 7.62 1 10 C0.67 6.7 0.34 3.4 0 0 Z " fill="#2EB8E5" transform="translate(113,262)"/>
<path d="M0 0 C0 0.33 0 0.66 0 1 C2.97 1.495 2.97 1.495 6 2 C5.67 2.99 5.34 3.98 5 5 C4.21753906 4.98839844 3.43507813 4.97679687 2.62890625 4.96484375 C1.61699219 4.95582031 0.60507813 4.94679687 -0.4375 4.9375 C-1.95150391 4.92009766 -1.95150391 4.92009766 -3.49609375 4.90234375 C-5.94021067 4.71387324 -5.94021067 4.71387324 -7 6 C-3.04 6 0.92 6 5 6 C5 7.65 5 9.3 5 11 C5.61875 11.12375 6.2375 11.2475 6.875 11.375 C9 12 9 12 11 14 C11 14.99 11 15.98 11 17 C10.34 17.33 9.68 17.66 9 18 C11.31 19.32 13.62 20.64 16 22 C14.35 23.65 12.7 25.3 11 27 C9.35 25.68 7.7 24.36 6 23 C6 24.32 6 25.64 6 27 C6.66 27 7.32 27 8 27 C7.505 29.475 7.505 29.475 7 32 C6.01 32 5.02 32 4 32 C4 32.66 4 33.32 4 34 C0.625 33.75 0.625 33.75 -3 33 C-3.66666667 31.66666667 -4.33333333 30.33333333 -5 29 C-8.56206661 28.18129815 -8.56206661 28.18129815 -12 28 C-11.01 26.515 -11.01 26.515 -10 25 C-6.875 24.8125 -6.875 24.8125 -4 25 C-4 24.34 -4 23.68 -4 23 C-2.68 22.67 -1.36 22.34 0 22 C0 21.34 0 20.68 0 20 C-1.98 20.33 -3.96 20.66 -6 21 C-5.505 19.515 -5.505 19.515 -5 18 C-5.99 17.34 -6.98 16.68 -8 16 C-8.32613281 16.5053125 -8.65226562 17.010625 -8.98828125 17.53125 C-9.42527344 18.1809375 -9.86226563 18.830625 -10.3125 19.5 C-10.95638672 20.47453125 -10.95638672 20.47453125 -11.61328125 21.46875 C-12.07089844 21.9740625 -12.52851563 22.479375 -13 23 C-13.99 23 -14.98 23 -16 23 C-16.21081851 26.89459074 -16.21081851 26.89459074 -15 30 C-22.61397276 31.14209591 -22.61397276 31.14209591 -24.91015625 30.296875 C-28.30897742 29.81405181 -30.01751487 31.70194364 -32.6875 33.6875 C-33.66074219 34.39261719 -34.63398438 35.09773438 -35.63671875 35.82421875 C-38.00986668 38.00908387 -38.82585073 38.83306334 -39 42 C-37.75009681 45.74970958 -36.20287849 46.76543361 -33 49 C-30.81785432 49.77833534 -30.81785432 49.77833534 -29 50 C-28 56.75 -28 56.75 -28 59 C-27.34 58.67 -26.68 58.34 -26 58 C-25.9175 56.906875 -25.835 55.81375 -25.75 54.6875 C-25 51 -25 51 -21.9375 48.9375 C-20.968125 48.298125 -19.99875 47.65875 -19 47 C-18.74994614 44.04182893 -18.74994614 44.04182893 -19 41 C-17.625 38.375 -17.625 38.375 -16 36 C-15.31903578 34.67391178 -14.64669414 33.34313399 -14 32 C-9.56322479 31.56502204 -7.63336334 31.52497749 -4 34.25 C-2 37 -2 37 -2.1875 39.3125 C-2.5896875 40.1478125 -2.5896875 40.1478125 -3 41 C0.87871033 41.45218674 0.87871033 41.45218674 2.625 39.5 C3.07875 39.005 3.5325 38.51 4 38 C4.66 38 5.32 38 6 38 C6.50833591 39.24663331 7.00631145 40.49749387 7.5 41.75 C7.7784375 42.44609375 8.056875 43.1421875 8.34375 43.859375 C9 46 9 46 9 50 C10.98 50.33 12.96 50.66 15 51 C15 51.99 15 52.98 15 54 C15.99 54 16.98 54 18 54 C17.835 55.11375 17.67 56.2275 17.5 57.375 C16.9544542 60.72032033 16.9544542 60.72032033 17 63 C18.98 63.495 18.98 63.495 21 64 C21.495 67.465 21.495 67.465 22 71 C19.3333581 72.33332095 17.83319697 71.67102033 15 71 C15 70.67 15 70.34 15 70 C14.41992188 69.96261719 13.83984375 69.92523438 13.2421875 69.88671875 C6.60097561 69.32780488 6.60097561 69.32780488 3.25 67.5 C-4.14684302 64.08607245 -12.9739659 64.11263295 -20.59375 66.87109375 C-32.51651583 72.46472902 -39.5700484 81.75809074 -44 94 C-45.09299641 97.54281595 -45.30424167 101.06059527 -45.5625 104.75 C-45.64628906 105.92046875 -45.73007813 107.0909375 -45.81640625 108.296875 C-45.90728516 109.63492188 -45.90728516 109.63492188 -46 111 C-44.02 111 -42.04 111 -40 111 C-38.52924754 115.41225737 -37.63115642 118.48281619 -39 123 C-39.66 123 -40.32 123 -41 123 C-43.875 116.375 -43.875 116.375 -45 113 C-47.10584438 112.19436362 -47.10584438 112.19436362 -49.5625 111.8125 C-50.38878906 111.65394531 -51.21507812 111.49539063 -52.06640625 111.33203125 C-52.70449219 111.22246094 -53.34257812 111.11289062 -54 111 C-53.67 111.99 -53.34 112.98 -53 114 C-53.61488281 113.98839844 -54.22976562 113.97679687 -54.86328125 113.96484375 C-55.67152344 113.95582031 -56.47976562 113.94679688 -57.3125 113.9375 C-58.51326172 113.92009766 -58.51326172 113.92009766 -59.73828125 113.90234375 C-62.16861334 113.90342145 -62.16861334 113.90342145 -65 115 C-65.08172936 117.5215021 -65.14083373 120.04029917 -65.1875 122.5625 C-65.21263672 123.26697266 -65.23777344 123.97144531 -65.26367188 124.69726562 C-65.33532304 129.88003315 -64.32172598 133.36264182 -62 138 C-60.04105639 137.88693303 -60.04105639 137.88693303 -58 137 C-57.71125 136.175 -57.4225 135.35 -57.125 134.5 C-56.75375 133.675 -56.3825 132.85 -56 132 C-54.02 131.67 -52.04 131.34 -50 131 C-50.66 135.29 -51.32 139.58 -52 144 C-50.0509375 143.9690625 -50.0509375 143.9690625 -48.0625 143.9375 C-46.70834367 143.91600546 -45.35243917 143.92851801 -44 144 C-41.87420503 146.12579497 -42.55328631 150.65212395 -42.37890625 153.53125 C-42.25386719 154.3459375 -42.12882812 155.160625 -42 156 C-41.34 156.33 -40.68 156.66 -40 157 C-40 157.66 -40 158.32 -40 159 C-38.741875 158.835 -37.48375 158.67 -36.1875 158.5 C-33.73543415 158.17841759 -31.48349306 158 -29 158 C-28.773125 157.360625 -28.54625 156.72125 -28.3125 156.0625 C-27 154 -27 154 -24.41796875 153.37109375 C-23.22107422 153.18740234 -23.22107422 153.18740234 -22 153 C-21.97083496 153.55236328 -21.94166992 154.10472656 -21.91162109 154.67382812 C-20.92292767 171.54100772 -17.89697287 185.92897226 -8 200 C-7.58621094 200.6084375 -7.17242187 201.216875 -6.74609375 201.84375 C-0.07733349 210.6027187 10.72145751 216.63082717 21 220 C22.20849609 220.42732422 22.20849609 220.42732422 23.44140625 220.86328125 C27.26025234 222.19075493 30.99702936 223.35435957 35 224 C34.53851564 228.92249987 32.19609831 233.27737682 29 237 C28.01 237 27.02 237 26 237 C26.33 238.32 26.66 239.64 27 241 C25.35 241.33 23.7 241.66 22 242 C22.33 242.99 22.66 243.98 23 245 C22.67 245.33 22.34 245.66 22 246 C22.25475806 248.52391899 22.25475806 248.52391899 23 251 C23.66 251.33 24.32 251.66 25 252 C25.433125 252.804375 25.86625 253.60875 26.3125 254.4375 C28.27286429 257.41434947 29.64662411 258.00305041 33 259 C33 259.33 33 259.66 33 260 C27.3751199 260.86536617 24.43506708 258.64269045 20.05078125 255.5078125 C19.37402344 255.01023437 18.69726562 254.51265625 18 254 C16.515 253.01 16.515 253.01 15 252 C15 251.01 15 250.02 15 249 C14.34 249 13.68 249 13 249 C8.55915562 244.97648798 5.39924644 240.71172899 3.703125 234.95703125 C3.02689854 232.85483234 3.02689854 232.85483234 1.51171875 230.6328125 C-0.14143856 227.75367031 -0.7659543 225.30343795 -1.4375 222.0625 C-2.6112835 217.24349938 -3.50226811 213.67261848 -7 210 C-9.70818614 208.48875464 -12.46973219 207.10814917 -15.23828125 205.7109375 C-18.95223661 203.41007124 -21.10349261 200.61019445 -23.5625 197.05078125 C-24.92648373 194.96973637 -24.92648373 194.96973637 -26.6875 193.35546875 C-28 192 -28 192 -28 190 C-28.99 189.67 -29.98 189.34 -31 189 C-32.80886571 184.23982707 -33.20666253 180.06323209 -33 175 C-32.34 175 -31.68 175 -31 175 C-29.88144313 170.30206113 -30.12176854 167.44844292 -32 163 C-32.66 162.01 -33.32 161.02 -34 160 C-34.33 160.99 -34.66 161.98 -35 163 C-39.62605312 161.67827054 -43.23055816 160.01555347 -47 157 C-47.680625 155.4840625 -47.680625 155.4840625 -48.375 153.9375 C-50.19700402 150.64387734 -50.68382954 150.46500877 -54.0625 149.3125 C-54.75472656 149.12300781 -55.44695312 148.93351563 -56.16015625 148.73828125 C-58 148 -58 148 -60 145 C-61.03125 144.9175 -62.0625 144.835 -63.125 144.75 C-68.5449865 143.70097036 -71.68767377 141.40644304 -75 137 C-76.48205943 133.06886363 -77.24175493 129.12188859 -78 125 C-78.6364436 122.99017812 -79.2839666 120.98286172 -80 119 C-79.67 121.97 -79.34 124.94 -79 128 C-82.57580238 124.42419762 -82.89547807 122.48782398 -83.10107422 117.59423828 C-82.72006037 96.86307434 -80.94315665 76.18252491 -69.33203125 58.453125 C-67.94814726 55.90450581 -67.75324132 54.70864244 -67.8125 51.875 C-66.96599808 41.8663597 -56.75640533 32.80492529 -50 26 C-48.34401202 24.65342681 -46.67839332 23.3185414 -45 22 C-44.175 21.154375 -43.35 20.30875 -42.5 19.4375 C-40.10311505 17.10053717 -37.84975046 15.70985028 -35 14 C-34.195625 13.195625 -33.39125 12.39125 -32.5625 11.5625 C-29.89610749 8.89610749 -27.22873915 6.93724349 -24 5 C-23.34 5 -22.68 5 -22 5 C-22 6.98 -22 8.96 -22 11 C-22.66 11.33 -23.32 11.66 -24 12 C-24.33 12.99 -24.66 13.98 -25 15 C-25.66 15 -26.32 15 -27 15 C-27.495 16.485 -27.495 16.485 -28 18 C-28.99 18 -29.98 18 -31 18 C-31.33 18.66 -31.66 19.32 -32 20 C-28.10663612 18.59406304 -24.94660518 16.94660518 -22 14 C-19.69166167 12.6216397 -17.34236272 11.32024081 -15 10 C-15.33 12.64 -15.66 15.28 -16 18 C-14.68 17.01 -13.36 16.02 -12 15 C-12.99 14.505 -12.99 14.505 -14 14 C-12.69063102 11.07909997 -11.24380538 9.24380538 -9 7 C-8.67 6.01 -8.34 5.02 -8 4 C-8.66 4 -9.32 4 -10 4 C-9.67 2.68 -9.34 1.36 -9 0 C-3.375 -1.125 -3.375 -1.125 0 0 Z " fill="#BEF469" transform="translate(194,145)"/>
<path d="M0 0 C0.04678391 13.83015566 0.08188702 27.66029899 0.10362434 41.49051762 C0.11405761 47.91257028 0.12820862 54.33456975 0.15087891 60.7565918 C0.17262335 66.9551947 0.18457207 73.15374646 0.18975449 79.35238457 C0.19344734 81.71623985 0.20065854 84.08009237 0.21146011 86.44392586 C0.2259961 89.7570308 0.22797703 93.0699249 0.22705078 96.38305664 C0.23424133 97.35841873 0.24143188 98.33378082 0.24884033 99.33869934 C0.22923258 105.82821899 0.04397977 111.41496676 -4.125 116.6875 C-13.39194078 124.14134367 -23.46881074 125.05594914 -35 124 C-43.22704944 122.21908577 -48.29633322 119.05550017 -53 112 C-53.46367045 106.99235914 -53.12308122 103.98462087 -50 100 C-42.74326363 93.14641565 -34.19555505 91.71779655 -24.5859375 91.84765625 C-17.43924508 92.26868496 -12.01010791 94.16376091 -6 98 C-4.81660922 89.47200598 -4.77702083 80.96288118 -4.68359375 72.37109375 C-4.66298679 70.76969411 -4.64198944 69.16829945 -4.62062073 67.56690979 C-4.56578601 63.37983265 -4.51620878 59.19270961 -4.46777344 55.0055542 C-4.41727406 50.72176088 -4.36173739 46.43803309 -4.30664062 42.15429688 C-4.1995322 33.76958687 -4.09798495 25.38482156 -4 17 C-4.91690109 17.31212936 -5.83380219 17.62425873 -6.77848816 17.94584656 C-15.56120074 20.91632924 -24.38704391 23.65115862 -33.30078125 26.20703125 C-34.59740251 26.58083324 -35.89396603 26.95483558 -37.19047546 27.32902527 C-39.86949499 28.10147941 -42.54912327 28.8717706 -45.22924805 29.64038086 C-48.66566625 30.62604417 -52.10053043 31.61700761 -55.53498554 32.60948658 C-58.1946173 33.37750312 -60.85498158 34.14295535 -63.51558495 34.9075985 C-65.39834264 35.44913904 -67.28051303 35.99272013 -69.16267395 36.53633118 C-70.86166084 37.02265266 -70.86166084 37.02265266 -72.5949707 37.51879883 C-73.59341507 37.80572098 -74.59185944 38.09264313 -75.62055969 38.38825989 C-78 39 -78 39 -80 39 C-79.99111755 40.20189972 -79.98223511 41.40379944 -79.9730835 42.64212036 C-79.89197928 53.97163023 -79.83202562 65.30108115 -79.79275131 76.63081551 C-79.77188114 82.45549753 -79.74357337 88.2799451 -79.69824219 94.10449219 C-79.6547649 99.72604551 -79.6308586 105.34737339 -79.62049103 110.96908188 C-79.61310311 113.11329573 -79.59867623 115.25749732 -79.57707977 117.40161514 C-79.54802133 120.40619777 -79.54404509 123.40985012 -79.54589844 126.41455078 C-79.53151733 127.30000076 -79.51713623 128.18545074 -79.50231934 129.09773254 C-79.53877955 134.56425989 -80.36212331 137.66158448 -84 142 C-90.44242548 147.63712229 -100.19789416 149.63854261 -108.6484375 149.28515625 C-116.366549 148.34923907 -124.49529974 146.90475115 -130 141 C-132.41200869 137.12616787 -133.36861537 134.33382563 -132.5625 129.875 C-130.84302644 124.57328986 -127.45366263 122.28364854 -122.72265625 119.80859375 C-112.88450735 115.5626558 -101.63334563 115.36228432 -91.5625 118.9375 C-87.28316327 120.71683673 -87.28316327 120.71683673 -86 122 C-85.98969254 121.24420654 -85.97938507 120.48841309 -85.96876526 119.7097168 C-85.86884806 112.4204347 -85.76614421 105.13119874 -85.66066074 97.84199524 C-85.60658091 94.09878317 -85.55340892 90.35556386 -85.50268555 86.61230469 C-85.21887248 65.73246621 -84.72602663 44.8693555 -84 24 C-76.25121696 20.88843717 -68.24668305 18.66887327 -60.23046875 16.3671875 C-58.70200759 15.92575976 -57.1736327 15.4840332 -55.64533997 15.04202271 C-51.6442735 13.88561447 -47.64215721 12.73288399 -43.63977051 11.58105469 C-37.98429634 9.95273757 -32.33029565 8.31930965 -26.67610168 6.68655396 C-23.66937468 5.81832436 -20.66226311 4.95144649 -17.65483093 4.08566284 C-16.28575578 3.69106265 -14.91668124 3.2964603 -13.54760742 2.90185547 C-12.35262131 2.55782684 -11.15763519 2.21379822 -9.92643738 1.85934448 C-3.59457012 0 -3.59457012 0 0 0 Z " fill="#231F20" transform="translate(133,8)"/>
<path d="M0 0 C3.0122986 1.5061493 3.3742487 3.81674354 4.6875 6.875 C12.17479218 23.38683034 21.25583777 32.94380407 38 40 C57.92470725 46.70320778 85.54506325 45.47441355 104.375 36.375 C117.06975979 29.80133613 126.23838819 19.07970642 135 8 C136.2937659 26.65179177 129.95852002 44.35901296 118.625 59.0625 C108.76076244 70.32867543 93.77018649 78.14426585 78.7265625 79.15234375 C58.43833832 79.95235259 40.8348196 77.06359858 24 65 C23.35417969 64.53980469 22.70835937 64.07960938 22.04296875 63.60546875 C10.44485903 54.52071915 3.08907389 39.21278434 0.42578125 24.91796875 C-0.11434115 19.94785166 -0.10687921 15.05686852 -0.0625 10.0625 C-0.05798828 9.09248047 -0.05347656 8.12246094 -0.04882812 7.12304688 C-0.0371315 4.7486324 -0.02074086 2.37434979 0 0 Z " fill="#232021" transform="translate(172,291)"/>
<path d="M0 0 C1.32 0 2.64 0 4 0 C4.309375 1.27875 4.61875 2.5575 4.9375 3.875 C7.47950635 11.4186392 13.33345784 16.43902792 18.94140625 21.84375 C31.02064632 33.5218345 40.68142513 45.5460489 41.46508789 63.10620117 C41.62097147 72.67832516 39.93644603 81.90130408 37 91 C36.34 91.66 35.68 92.32 35 93 C35.09087891 92.39115967 35.18175781 91.78231934 35.27539062 91.1550293 C35.6917507 88.33365601 36.0959119 85.51065602 36.5 82.6875 C36.64308594 81.73037109 36.78617187 80.77324219 36.93359375 79.78710938 C38.7033367 67.27249851 39.30908532 55.63870075 32.4140625 44.62890625 C30.23339512 42.116922 28.19671453 41.106178 24.88671875 40.8125 C19.77242012 41.24853257 16.25823166 42.31502419 12.61694336 46.04730225 C6.09655626 53.92163202 6.49940208 63.46253913 6.69934082 73.13399506 C6.75097366 75.65695135 6.77659621 78.17905484 6.79589844 80.70245361 C6.84130552 86.05202274 6.91834318 91.40087758 7 96.75 C7.0946383 102.96731851 7.17605174 109.18423655 7.22375488 115.40210724 C7.24957332 117.88091001 7.29957393 120.35845976 7.35058594 122.83685303 C7.36512016 124.36095105 7.37852658 125.88506038 7.390625 127.40917969 C7.41129028 128.09190445 7.43195557 128.77462921 7.45324707 129.4780426 C7.45542462 134.43332288 6.05012803 137.1629226 3 141 C-5.46783402 148.83616092 -16.66022929 150.59240697 -27.828125 150.28515625 C-37.44634472 149.42046408 -45.92015289 146.48783182 -52.5 139.25 C-54.46408575 134.99448087 -54.80402269 131.60862489 -54 127 C-50.7836604 120.31001363 -45.3462909 116.66427975 -38.5 114.25 C-25.1336402 110.25363905 -12.2763414 111.28263801 -0.0144043 117.89868164 C0.65034912 118.2621167 1.31510254 118.62555176 2 119 C2.05605024 107.86896646 1.9260672 96.75489886 1.62960815 85.6278286 C1.56024849 83.02084245 1.49378975 80.41379494 1.42797852 77.80671692 C1.26411474 71.33588752 1.09595813 64.86517162 0.92712402 58.39447021 C0.78387912 52.90120872 0.64274152 47.40790088 0.50436401 41.91451454 C0.43989776 39.38697812 0.37248945 36.85953237 0.30493164 34.33207703 C0.0101098 22.88615597 -0.04763724 11.44943172 0 0 Z " fill="#231F20" transform="translate(419,0)"/>
<path d="M0 0 C2.97 0.495 2.97 0.495 6 1 C6 1.66 6 2.32 6 3 C7.0209375 3.12375 7.0209375 3.12375 8.0625 3.25 C10.68725985 3.92015145 12.27804183 4.64114126 14.5625 6 C17.65089852 8.02834429 17.65089852 8.02834429 20.01660156 8.45166016 C22.40246688 9.11126792 23.42453261 10.03758359 25.171875 11.7734375 C25.75050293 12.34626465 26.32913086 12.9190918 26.92529297 13.50927734 C27.52744629 14.12496582 28.12959961 14.7406543 28.75 15.375 C29.6783667 16.31206787 29.6783667 16.31206787 30.62548828 17.26806641 C35.68423406 22.46972209 40.0101308 27.92845991 44 34 C41.66666667 36.33333333 39.33333333 38.66666667 37 41 C36.33168041 46.18498493 37.74377707 48.68522799 40.6875 52.875 C43.98178312 57.83430856 46.20789255 62.67786045 47.9375 68.375 C48.23563599 69.35509033 48.23563599 69.35509033 48.53979492 70.35498047 C50.41527854 76.89628106 51.13247866 83.14956994 51.0625 89.9375 C51.05347656 91.08089844 51.04445313 92.22429687 51.03515625 93.40234375 C51.02355469 94.25957031 51.01195312 95.11679688 51 96 C48.03 95.01 45.06 94.02 42 93 C42 94.65 42 96.3 42 98 C39.97954558 97.39816251 37.97888961 96.72693904 36 96 C35.67 95.34 35.34 94.68 35 94 C33.11736119 93.09656316 33.11736119 93.09656316 30.9375 92.375 C30.20402344 92.11460937 29.47054687 91.85421875 28.71484375 91.5859375 C28.14894531 91.39257812 27.58304687 91.19921875 27 91 C27 88.69 27 86.38 27 84 C26.24332031 83.9690625 25.48664063 83.938125 24.70703125 83.90625 C22 83 22 83 20.26171875 80.15625 C19.74222656 78.9496875 19.22273438 77.743125 18.6875 76.5 C14.55277409 67.51151511 9.41308872 60.71448838 0.46875 56.0703125 C-0.25828125 55.54050781 -0.25828125 55.54050781 -1 55 C-1 54.01 -1 53.02 -1 52 C0.32 51.34 1.64 50.68 3 50 C-1.95 50.495 -1.95 50.495 -7 51 C-7.33 48.36 -7.66 45.72 -8 43 C-7.34 43 -6.68 43 -6 43 C-6.33 42.34 -6.66 41.68 -7 41 C-7.99 40.67 -8.98 40.34 -10 40 C-10 41.98 -10 43.96 -10 46 C-11.98 46.66 -13.96 47.32 -16 48 C-17.25664978 45.09399739 -18 43.20395416 -18 40 C-17.34 40 -16.68 40 -16 40 C-16 39.34 -16 38.68 -16 38 C-14.68 38 -13.36 38 -12 38 C-12.350625 37.05125 -12.70125 36.1025 -13.0625 35.125 C-14 32 -14 32 -13 30 C-12.01 30 -11.02 30 -10 30 C-10 30.66 -10 31.32 -10 32 C-9.01 32 -8.02 32 -7 32 C-6.835 32.680625 -6.67 33.36125 -6.5 34.0625 C-4.58429195 37.81409492 -1.98208107 39.7095354 1.3203125 42.25390625 C3 44 3 44 3 48 C4.485 47.505 4.485 47.505 6 47 C6.309375 46.34 6.61875 45.68 6.9375 45 C8 43 8 43 10.125 42.25 C10.74375 42.1675 11.3625 42.085 12 42 C11.29875 41.113125 10.5975 40.22625 9.875 39.3125 C8 36 8 36 8.75 33.25 C9.1625 32.5075 9.575 31.765 10 31 C10 30.34 10 29.68 10 29 C9.34 29 8.68 29 8 29 C7.67 29.99 7.34 30.98 7 32 C4.58654511 31.60723218 3.26954474 31.25776515 1.48046875 29.546875 C-2.02910938 24.66951567 -2.02910938 24.66951567 -1.875 21.125 C-1 19 -1 19 0 18 C-0.15086418 14.59424122 -0.40616564 11.21147173 -0.68359375 7.81445312 C-1.10085956 2.20171912 -1.10085956 2.20171912 0 0 Z " fill="#A0ED57" transform="translate(316,157)"/>
<path d="M0 0 C11.60399054 6.59595252 19.94581337 16.47001915 24.0390625 29.2421875 C25.72827435 35.95167382 26.30906107 42.09763607 26 49 C19.73 49 13.46 49 7 49 C6.649375 46.586875 6.29875 44.17375 5.9375 41.6875 C4.49057793 33.30424034 1.63913122 26.44955134 -4.625 20.44140625 C-8.75220379 17.57419015 -13.42662913 17.281343 -18.2890625 17.5078125 C-23.0378634 18.36998673 -25.88205181 20.36353089 -29 24 C-34.31044425 31.91244366 -35.98124655 39.62746826 -37 49 C-43.6 49 -50.2 49 -57 49 C-57 33.80478938 -52.26783495 19.40805369 -41.8125 8.0625 C-30.3051995 -2.69217155 -14.60127029 -6.58809315 0 0 Z " fill="#242223" transform="translate(315,211)"/>
<path d="M0 0 C9.01412558 7.47324941 14.43590902 16.56667627 17 28 C17.29152858 32.0721453 17.19479092 35.90939064 17 40 C11.39 40 5.78 40 0 40 C-0.37125 37.710625 -0.7425 35.42125 -1.125 33.0625 C-2.66093391 24.82455188 -5.55922659 19.20617523 -11.75 13.4375 C-16.26486599 11.44054004 -20.14006147 11.21639428 -25 12 C-31.79074805 15.39537403 -35.26554331 20.71047147 -38.18359375 27.5078125 C-39.53956849 31.6471038 -39.75561287 35.66212836 -40 40 C-45.61 40 -51.22 40 -57 40 C-57.62164967 25.54664522 -54.17198889 14.11639327 -44.34375 3.15234375 C-31.44801471 -8.73971402 -14.32271206 -10.30073364 0 0 Z " fill="#242122" transform="translate(205,216)"/>
<path d="M0 0 C2.3629816 0.01851673 4.7255757 0.02050741 7.08862305 0.02026367 C8.58927751 0.02517061 10.08992931 0.0309953 11.59057617 0.0378418 C12.29775284 0.03895462 13.0049295 0.04006744 13.73353577 0.04121399 C18.65803083 0.08967146 18.65803083 0.08967146 19.77416992 1.20581055 C22.10234956 1.57341786 24.43600842 1.90822636 26.77416992 2.20581055 C26.11416992 4.51581055 25.45416992 6.82581055 24.77416992 9.20581055 C26.42416992 9.53581055 28.07416992 9.86581055 29.77416992 10.20581055 C30.26916992 11.69081055 30.26916992 11.69081055 30.77416992 13.20581055 C31.76416992 14.19581055 31.76416992 14.19581055 32.77416992 15.20581055 C31.77416992 18.20581055 31.77416992 18.20581055 29.77416992 19.20581055 C30.76416992 21.18581055 31.75416992 23.16581055 32.77416992 25.20581055 C29.72217874 28.1593504 27.38456224 29.43651521 23.27416992 30.14331055 C18.71258845 30.96514919 17.00145624 32.89130027 13.77416992 36.20581055 C10.46166992 36.51831055 10.46166992 36.51831055 7.77416992 36.20581055 C7.11416992 38.51581055 6.45416992 40.82581055 5.77416992 43.20581055 C5.11416992 43.20581055 4.45416992 43.20581055 3.77416992 43.20581055 C3.44416992 44.85581055 3.11416992 46.50581055 2.77416992 48.20581055 C-1.49224875 49.46063957 -4.21849643 49.16495144 -8.22583008 47.20581055 C-9.60083008 44.58081055 -9.60083008 44.58081055 -10.22583008 42.20581055 C-10.88583008 42.20581055 -11.54583008 42.20581055 -12.22583008 42.20581055 C-14.80691116 34.4625673 -14.80691116 34.4625673 -13.22583008 30.20581055 C-12.23583008 29.54581055 -11.24583008 28.88581055 -10.22583008 28.20581055 C-11.54583008 27.87581055 -12.86583008 27.54581055 -14.22583008 27.20581055 C-14.22583008 26.54581055 -14.22583008 25.88581055 -14.22583008 25.20581055 C-12.57583008 24.87581055 -10.92583008 24.54581055 -9.22583008 24.20581055 C-9.22583008 23.54581055 -9.22583008 22.88581055 -9.22583008 22.20581055 C-10.54583008 22.53581055 -11.86583008 22.86581055 -13.22583008 23.20581055 C-13.22583008 19.90581055 -13.22583008 16.60581055 -13.22583008 13.20581055 C-16.52583008 13.20581055 -19.82583008 13.20581055 -23.22583008 13.20581055 C-23.55583008 12.21581055 -23.88583008 11.22581055 -24.22583008 10.20581055 C-23.56583008 10.20581055 -22.90583008 10.20581055 -22.22583008 10.20581055 C-21.89583008 9.21581055 -21.56583008 8.22581055 -21.22583008 7.20581055 C-21.88583008 6.87581055 -22.54583008 6.54581055 -23.22583008 6.20581055 C-23.22583008 6.86581055 -23.22583008 7.52581055 -23.22583008 8.20581055 C-25.53583008 8.86581055 -27.84583008 9.52581055 -30.22583008 10.20581055 C-30.22583008 10.86581055 -30.22583008 11.52581055 -30.22583008 12.20581055 C-33.81659185 13.44876654 -36.57898222 13.21451315 -40.22583008 12.20581055 C-42.10083008 10.14331055 -42.10083008 10.14331055 -43.22583008 8.20581055 C-42.56583008 8.20581055 -41.90583008 8.20581055 -41.22583008 8.20581055 C-41.22583008 7.54581055 -41.22583008 6.88581055 -41.22583008 6.20581055 C-38.25583008 6.70081055 -38.25583008 6.70081055 -35.22583008 7.20581055 C-35.22583008 6.54581055 -35.22583008 5.88581055 -35.22583008 5.20581055 C-33.76953675 4.74103608 -32.31062423 4.28446965 -30.85083008 3.83081055 C-29.63266602 3.44795898 -29.63266602 3.44795898 -28.38989258 3.05737305 C-27.34575195 2.77635742 -26.30161133 2.4953418 -25.22583008 2.20581055 C-24.25286987 1.93788696 -24.25286987 1.93788696 -23.26025391 1.66455078 C-15.57024483 -0.17898388 -7.85492802 -0.0639287 0 0 Z " fill="#CFF875" transform="translate(235.225830078125,133.794189453125)"/>
<path d="M0 0 C0.04374756 0.82854492 0.04374756 0.82854492 0.08837891 1.67382812 C1.07707233 18.54100772 4.10302713 32.92897226 14 47 C14.41378906 47.6084375 14.82757813 48.216875 15.25390625 48.84375 C21.92266651 57.6027187 32.72145751 63.63082717 43 67 C44.20849609 67.42732422 44.20849609 67.42732422 45.44140625 67.86328125 C49.26025234 69.19075493 52.99702936 70.35435957 57 71 C56.53851564 75.92249987 54.19609831 80.27737682 51 84 C50.01 84 49.02 84 48 84 C48.33 85.32 48.66 86.64 49 88 C46.525 88.495 46.525 88.495 44 89 C44.33 89.99 44.66 90.98 45 92 C44.67 92.33 44.34 92.66 44 93 C44.25475806 95.52391899 44.25475806 95.52391899 45 98 C45.99 98.495 45.99 98.495 47 99 C47.433125 99.804375 47.86625 100.60875 48.3125 101.4375 C50.27286429 104.41434947 51.64662411 105.00305041 55 106 C55 106.33 55 106.66 55 107 C49.3751199 107.86536617 46.43506708 105.64269045 42.05078125 102.5078125 C41.37402344 102.01023437 40.69726562 101.51265625 40 101 C39.01 100.34 38.02 99.68 37 99 C37 98.01 37 97.02 37 96 C36.34 96 35.68 96 35 96 C30.55915562 91.97648798 27.39924644 87.71172899 25.703125 81.95703125 C25.02689854 79.85483234 25.02689854 79.85483234 23.51171875 77.6328125 C21.85856144 74.75367031 21.2340457 72.30343795 20.5625 69.0625 C19.3887165 64.24349938 18.49773189 60.67261848 15 57 C12.29181386 55.48875464 9.53026781 54.10814917 6.76171875 52.7109375 C3.04776339 50.41007124 0.89650739 47.61019445 -1.5625 44.05078125 C-2.92648373 41.96973637 -2.92648373 41.96973637 -4.6875 40.35546875 C-6 39 -6 39 -6 37 C-6.99 36.67 -7.98 36.34 -9 36 C-10.80886571 31.23982707 -11.20666253 27.06323209 -11 22 C-10.34 22 -9.68 22 -9 22 C-7.87170238 17.26114998 -8.29204614 14.52105433 -10 10 C-10 9.01 -10 8.02 -10 7 C-9.01 6.34 -8.02 5.68 -7 5 C-6.690625 4.319375 -6.38125 3.63875 -6.0625 2.9375 C-5 1 -5 1 -2.9375 0.25 C-1 0 -1 0 0 0 Z " fill="#7EE53E" transform="translate(172,298)"/>
<path d="M0 0 C2.475 0.99 2.475 0.99 5 2 C5 2.66 5 3.32 5 4 C5.90363281 3.90460938 6.80726563 3.80921875 7.73828125 3.7109375 C9.50751953 3.54464844 9.50751953 3.54464844 11.3125 3.375 C12.48425781 3.25898438 13.65601563 3.14296875 14.86328125 3.0234375 C18 3 18 3 21 5 C21 5.66 21 6.32 21 7 C21.86625 7.4021875 21.86625 7.4021875 22.75 7.8125 C25 9 25 9 26.828125 10.51171875 C29.30072501 12.20607235 31.0539398 12.56886924 34 13 C37.83259774 13.56086796 40.09980214 14.38212228 43 17 C44.46920223 19.93840447 45 21.69747512 45 25 C46.051875 25.12375 47.10375 25.2475 48.1875 25.375 C51.45958771 25.91140782 54.00536076 26.63880035 57 28 C57 28.66 57 29.32 57 30 C57.74765625 30.03738281 58.4953125 30.07476562 59.265625 30.11328125 C60.74289063 30.21189453 60.74289063 30.21189453 62.25 30.3125 C63.22453125 30.37050781 64.1990625 30.42851562 65.203125 30.48828125 C68.28554948 31.05224439 69.63751024 32.01053494 72 34 C74.14733927 34.70514846 74.14733927 34.70514846 76 35 C76 35.99 76 36.98 76 38 C30.55014986 38.66156987 30.55014986 38.66156987 12.8125 21.9375 C7.0646393 15.8412841 1.69343933 8.35040773 0 0 Z " fill="#A5ED59" transform="translate(176,297)"/>
<path d="M0 0 C0 0.33 0 0.66 0 1 C2.97 1.495 2.97 1.495 6 2 C5.67 2.99 5.34 3.98 5 5 C3.82630859 4.98259766 3.82630859 4.98259766 2.62890625 4.96484375 C1.61699219 4.95582031 0.60507813 4.94679687 -0.4375 4.9375 C-1.95150391 4.92009766 -1.95150391 4.92009766 -3.49609375 4.90234375 C-5.94021067 4.71387324 -5.94021067 4.71387324 -7 6 C-3.04 6 0.92 6 5 6 C5 7.65 5 9.3 5 11 C5.61875 11.12375 6.2375 11.2475 6.875 11.375 C9 12 9 12 11 14 C11 14.99 11 15.98 11 17 C10.34 17.33 9.68 17.66 9 18 C11.31 19.32 13.62 20.64 16 22 C14.35 23.65 12.7 25.3 11 27 C9.35 25.68 7.7 24.36 6 23 C6 24.32 6 25.64 6 27 C6.66 27 7.32 27 8 27 C7.67 28.65 7.34 30.3 7 32 C6.01 32 5.02 32 4 32 C4 32.66 4 33.32 4 34 C0.625 33.75 0.625 33.75 -3 33 C-3.66666667 31.66666667 -4.33333333 30.33333333 -5 29 C-8.56206661 28.18129815 -8.56206661 28.18129815 -12 28 C-11.34 27.01 -10.68 26.02 -10 25 C-6.875 24.8125 -6.875 24.8125 -4 25 C-4 24.34 -4 23.68 -4 23 C-2.68 22.67 -1.36 22.34 0 22 C0 21.34 0 20.68 0 20 C-1.98 20.33 -3.96 20.66 -6 21 C-5.67 20.01 -5.34 19.02 -5 18 C-6.97420135 15.47740939 -7.96745642 15.0070192 -11.1875 14.3125 C-12.115625 14.209375 -13.04375 14.10625 -14 14 C-12.69063102 11.07909997 -11.24380538 9.24380538 -9 7 C-8.67 6.01 -8.34 5.02 -8 4 C-8.66 4 -9.32 4 -10 4 C-9.67 2.68 -9.34 1.36 -9 0 C-3.375 -1.125 -3.375 -1.125 0 0 Z " fill="#CDF67B" transform="translate(194,145)"/>
<path d="M0 0 C0.99 0.33 1.98 0.66 3 1 C3.144375 1.639375 3.28875 2.27875 3.4375 2.9375 C3.623125 3.618125 3.80875 4.29875 4 5 C5.76591887 6.00916033 5.76591887 6.00916033 8 7 C10.19102478 8.5428243 12.02409223 10.15881321 14 12 C14 12.99 14 13.98 14 15 C12.68 15.33 11.36 15.66 10 16 C10.99 16.66 11.98 17.32 13 18 C13.73080266 16.02253397 14.39421747 14.01927511 15 12 C14.67 11.34 14.34 10.68 14 10 C16.25 10.0625 16.25 10.0625 19 11 C20.60859433 13.21931489 21.73366268 15.55465897 23 18 C23.66 18.33 24.32 18.66 25 19 C24.84402344 18.44570312 24.68804687 17.89140625 24.52734375 17.3203125 C24.23537109 16.23363281 24.23537109 16.23363281 23.9375 15.125 C23.64166016 14.04605469 23.64166016 14.04605469 23.33984375 12.9453125 C23 11 23 11 24 9 C24.66 9 25.32 9 26 9 C29.6850963 16.65973587 31.62699482 22.47287042 31 31 C28.03 30.01 25.06 29.02 22 28 C22 29.65 22 31.3 22 33 C19.97954558 32.39816251 17.97888961 31.72693904 16 31 C15.67 30.34 15.34 29.68 15 29 C13.11736119 28.09656316 13.11736119 28.09656316 10.9375 27.375 C10.20402344 27.11460937 9.47054688 26.85421875 8.71484375 26.5859375 C8.14894531 26.39257812 7.58304687 26.19921875 7 26 C7 23.69 7 21.38 7 19 C6.25363281 18.99097656 5.50726563 18.98195312 4.73828125 18.97265625 C2 18 2 18 -0.01953125 14.62109375 C-0.63634179 13.23492812 -1.23341036 11.83984289 -1.8125 10.4375 C-2.12380859 9.72658203 -2.43511719 9.01566406 -2.75585938 8.28320312 C-3.52091598 6.52945799 -4.26273604 4.76560909 -5 3 C-4.01 3 -3.02 3 -2 3 C-2 2.34 -2 1.68 -2 1 C-1.34 0.67 -0.68 0.34 0 0 Z " fill="#3AB9E5" transform="translate(336,222)"/>
<path d="M0 0 C0 0.99 0 1.98 0 3 C0.66 3.66 1.32 4.32 2 5 C1.67 5.66 1.34 6.32 1 7 C-0.33333333 6.33333333 -1.66666667 5.66666667 -3 5 C-5.00800456 5.28112064 -7.01014051 5.61067967 -9 6 C-9.33 6.99 -9.66 7.98 -10 9 C-9.34 9 -8.68 9 -8 9 C-8.41421969 13.83256305 -10.46413986 15.82679218 -14 19 C-13.01 19.33 -12.02 19.66 -11 20 C-12.375 21.5 -12.375 21.5 -14 23 C-14.66 23 -15.32 23 -16 23 C-17 18.125 -17 18.125 -17 17 C-19.69725519 18.88807863 -21.13216429 20.19824644 -23 23 C-23.33 22.34 -23.66 21.68 -24 21 C-24.5775 21.66 -25.155 22.32 -25.75 23 C-28 25 -28 25 -32 25 C-31.505 23.515 -31.505 23.515 -31 22 C-30.01 22 -29.02 22 -28 22 C-27.67 21.34 -27.34 20.68 -27 20 C-26.34 20 -25.68 20 -25 20 C-24.67 18.68 -24.34 17.36 -24 16 C-23.34 16 -22.68 16 -22 16 C-22.268125 15.443125 -22.53625 14.88625 -22.8125 14.3125 C-23 12 -23 12 -21.125 9.4375 C-17.29802392 6.45245866 -13.63964412 5.24330333 -9 4 C-9 3.34 -9 2.68 -9 2 C-2.25 0 -2.25 0 0 0 Z " fill="#8CDF98" transform="translate(194,140)"/>
<path d="M0 0 C0.99 0 1.98 0 3 0 C3 0.66 3 1.32 3 2 C3.99 2 4.98 2 6 2 C6.165 2.680625 6.33 3.36125 6.5 4.0625 C8.39933426 7.78202959 10.94280069 9.64149637 14.22265625 12.15625 C16.37314691 14.38708866 16.66233368 15.96619798 17 19 C13.12315913 20.19287411 10.08378077 21 6 21 C5.67 18.36 5.34 15.72 5 13 C5.66 13 6.32 13 7 13 C6.67 12.34 6.34 11.68 6 11 C5.01 10.67 4.02 10.34 3 10 C3 11.98 3 13.96 3 16 C1.02 16.66 -0.96 17.32 -3 18 C-4.25664978 15.09399739 -5 13.20395416 -5 10 C-4.34 10 -3.68 10 -3 10 C-3 9.34 -3 8.68 -3 8 C-1.68 8 -0.36 8 1 8 C0.649375 7.05125 0.29875 6.1025 -0.0625 5.125 C-1 2 -1 2 0 0 Z " fill="#B3F16F" transform="translate(303,187)"/>
<path d="M0 0 C0 0.33 0 0.66 0 1 C-4.62 1.66 -9.24 2.32 -14 3 C-14 3.66 -14 4.32 -14 5 C-17.3 5 -20.6 5 -24 5 C-24 5.66 -24 6.32 -24 7 C-26.31 7.66 -28.62 8.32 -31 9 C-31 9.66 -31 10.32 -31 11 C-34.59076177 12.242956 -37.35315214 12.0087026 -41 11 C-42.875 8.9375 -42.875 8.9375 -44 7 C-43.34 7 -42.68 7 -42 7 C-42 6.34 -42 5.68 -42 5 C-39.03 5.495 -39.03 5.495 -36 6 C-36 5.34 -36 4.68 -36 4 C-23.74441633 0.08864351 -12.79545736 -2.17795019 0 0 Z " fill="#C1F473" transform="translate(236,135)"/>
<path d="M0 0 C1.46242734 4.38728201 -0.68514077 7.19720677 -2.625 11.125 C-2.99818359 11.89473145 -3.37136719 12.66446289 -3.75585938 13.45751953 C-4.82402155 15.64521563 -5.90784631 17.82420014 -7 20 C-7.45117188 20.90234375 -7.90234375 21.8046875 -8.3671875 22.734375 C-13.75600897 32.91738936 -21.15937746 41.63303938 -29 50 C-29 49.01 -29 48.02 -29 47 C-29.22945313 46.34902344 -29.45890625 45.69804687 -29.6953125 45.02734375 C-30 43 -30 43 -28.7421875 41.25390625 C-28.12601562 40.69574219 -27.50984375 40.13757813 -26.875 39.5625 C-26.2253125 38.9540625 -25.575625 38.345625 -24.90625 37.71875 C-24.2771875 37.1515625 -23.648125 36.584375 -23 36 C-17.62464343 31.00859747 -14.02891763 25.63996689 -11.25 18.875 C-8.39314222 12.10186635 -4.058679 6.09669089 0 0 Z " fill="#21C9B8" transform="translate(373,318)"/>
<path d="M0 0 C0.94875 0.04125 1.8975 0.0825 2.875 0.125 C2.875 1.115 2.875 2.105 2.875 3.125 C4.195 3.455 5.515 3.785 6.875 4.125 C7.205 6.435 7.535 8.745 7.875 11.125 C5.2083581 12.45832095 3.70819697 11.79602033 0.875 11.125 C0.875 10.795 0.875 10.465 0.875 10.125 C0.00488281 10.06892578 0.00488281 10.06892578 -0.8828125 10.01171875 C-6.01487237 9.57981272 -9.53335216 8.57387885 -14.125 6.125 C-17.3616963 5.41741674 -17.3616963 5.41741674 -20.125 5.125 C-19.465 4.135 -18.805 3.145 -18.125 2.125 C-15.15625 1.90234375 -15.15625 1.90234375 -11.625 2.0625 C-8.18801136 2.25399932 -8.18801136 2.25399932 -5.125 2.125 C-3.125 0.125 -3.125 0.125 0 0 Z " fill="#E4FC85" transform="translate(208.125,204.875)"/>
<path d="M0 0 C1.98 0.66 3.96 1.32 6 2 C5.01 3.485 5.01 3.485 4 5 C5.65 5 7.3 5 9 5 C9 5.66 9 6.32 9 7 C7.68 7.33 6.36 7.66 5 8 C5 8.66 5 9.32 5 10 C2.69 10.66 0.38 11.32 -2 12 C-2 13.32 -2 14.64 -2 16 C-2.99 16.66 -3.98 17.32 -5 18 C-5.66 18.99 -6.32 19.98 -7 21 C-7.66 20.67 -8.32 20.34 -9 20 C-9 19.01 -9 18.02 -9 17 C-10.65 17.66 -12.3 18.32 -14 19 C-14.66 17.35 -15.32 15.7 -16 14 C-15.01 14.33 -14.02 14.66 -13 15 C-10.99124558 14.72428861 -8.98821313 14.39764263 -7 14 C-7.66 12.68 -8.32 11.36 -9 10 C-8.34 10 -7.68 10 -7 10 C-7 9.34 -7 8.68 -7 8 C-6.401875 7.773125 -5.80375 7.54625 -5.1875 7.3125 C-2.42262384 5.6535743 -1.45450865 3.83629187 0 1 C0 0.67 0 0.34 0 0 Z " fill="#40BAE6" transform="translate(185,160)"/>
<path d="M0 0 C3 1 3 1 3.87890625 2.7421875 C4.10449219 3.44601563 4.33007812 4.14984375 4.5625 4.875 C5.48808088 7.70926461 6.30105884 9.45158826 8 12 C9.96361864 12.57748803 9.96361864 12.57748803 12.125 12.6875 C13.40375 12.790625 14.6825 12.89375 16 13 C16 13.66 16 14.32 16 15 C15.01 15.33 14.02 15.66 13 16 C12.67 16.66 12.34 17.32 12 18 C13.32 18.33 14.64 18.66 16 19 C15.67 19.66 15.34 20.32 15 21 C14.67 20.67 14.34 20.34 14 20 C14.50603992 22.16874252 14.99983813 23.99967627 16 26 C14.56496445 26.36402369 13.12683494 26.71586591 11.6875 27.0625 C10.48673828 27.35833984 10.48673828 27.35833984 9.26171875 27.66015625 C7 28 7 28 4 27 C4.33 26.34 4.66 25.68 5 25 C5.66 25 6.32 25 7 25 C7.20970559 20.85906302 7.20970559 20.85906302 6 17 C6.4375 14.875 6.4375 14.875 7 13 C6.38125 12.9175 5.7625 12.835 5.125 12.75 C3 12 3 12 1.75 10.25 C0.90098535 7.70295606 0.93153221 5.67024365 1 3 C0.67 2.01 0.34 1.02 0 0 Z " fill="#42BDD4" transform="translate(327,170)"/>
<path d="M0 0 C0 1.98 0 3.96 0 6 C-0.99 6.495 -0.99 6.495 -2 7 C-2.33 7.99 -2.66 8.98 -3 10 C-3.66 10 -4.32 10 -5 10 C-5.33 10.99 -5.66 11.98 -6 13 C-7.6875 13.625 -7.6875 13.625 -10 14 C-11.0725 14.185625 -12.145 14.37125 -13.25 14.5625 C-14.1575 14.706875 -15.065 14.85125 -16 15 C-15.91917503 12.25195094 -15.47168788 10.50947503 -13.5859375 8.47265625 C-3.79818702 0 -3.79818702 0 0 0 Z " fill="#B1EF78" transform="translate(172,150)"/>
<path d="M0 0 C2 1.3125 2 1.3125 4 3 C4 3.99 4 4.98 4 6 C5.65 6.33 7.3 6.66 9 7 C9 10 9 10 7 12.1875 C6.01 13.0846875 6.01 13.0846875 5 14 C3.875 10.25 3.875 10.25 5 8 C1.36905358 10.64960955 -0.89851796 13.01824456 -3 17 C-3.33 16.01 -3.66 15.02 -4 14 C-3.505 13.030625 -3.01 12.06125 -2.5 11.0625 C-0.75024083 8.20494887 -0.75024083 8.20494887 -1.3125 5.625 C-1.6528125 4.820625 -1.6528125 4.820625 -2 4 C-3.65 4.33 -5.3 4.66 -7 5 C-2.25 1.125 -2.25 1.125 0 0 Z " fill="#86DBAA" transform="translate(151,211)"/>
<path d="M0 0 C0 0.33 0 0.66 0 1 C2.97 1.495 2.97 1.495 6 2 C5.67 2.99 5.34 3.98 5 5 C3.82630859 4.98259766 3.82630859 4.98259766 2.62890625 4.96484375 C1.61699219 4.95582031 0.60507813 4.94679687 -0.4375 4.9375 C-1.95150391 4.92009766 -1.95150391 4.92009766 -3.49609375 4.90234375 C-5.94021067 4.71387324 -5.94021067 4.71387324 -7 6 C-3.04 6 0.92 6 5 6 C3.68 6.33 2.36 6.66 1 7 C0.67 7.99 0.34 8.98 0 10 C0 9.01 0 8.02 0 7 C-3.465 8.485 -3.465 8.485 -7 10 C-7 9.34 -7 8.68 -7 8 C-7.66 7.67 -8.32 7.34 -9 7 C-8.67 6.01 -8.34 5.02 -8 4 C-8.66 4 -9.32 4 -10 4 C-9.67 2.68 -9.34 1.36 -9 0 C-3.375 -1.125 -3.375 -1.125 0 0 Z " fill="#9FE68C" transform="translate(194,145)"/>
<path d="M0 0 C0.680625 0.165 1.36125 0.33 2.0625 0.5 C4.80864032 0.96742814 6.43076054 0.86917373 9.125 0.4375 C13 0 13 0 16 2 C15 5 15 5 12.3125 6.75 C8.58535188 8.15647099 6.78151843 8.11726681 3 7 C1.04783565 5.04783565 0.15173355 3.46800047 -1 1 C-0.67 0.67 -0.34 0.34 0 0 Z " fill="#C7F676" transform="translate(268,168)"/>
<path d="M0 0 C1.12978054 3.38934161 0.97680919 3.68977232 -0.4765625 6.73046875 C-0.8154248 7.4479126 -1.15428711 8.16535645 -1.50341797 8.90454102 C-1.87354004 9.65791748 -2.24366211 10.41129395 -2.625 11.1875 C-2.99383301 11.9518335 -3.36266602 12.71616699 -3.74267578 13.50366211 C-6.20698359 18.54703452 -8.70275317 23.44204115 -12 28 C-12.66 28 -13.32 28 -14 28 C-12.64131246 17.47017157 -5.72564099 8.60069576 0 0 Z " fill="#1CC9C2" transform="translate(373,318)"/>
<path d="M0 0 C0.99 0 1.98 0 3 0 C2 2 1 4 0 6 C-0.66 6 -1.32 6 -2 6 C-2.33 6.99 -2.66 7.98 -3 9 C-4.2375 8.566875 -4.2375 8.566875 -5.5 8.125 C-9.30795181 6.90101549 -13.11270827 5.9383118 -17 5 C-16.34 4.01 -15.68 3.02 -15 2 C-12.03125 1.77734375 -12.03125 1.77734375 -8.5 1.9375 C-5.06301136 2.12899932 -5.06301136 2.12899932 -2 2 C-1.34 1.34 -0.68 0.68 0 0 Z " fill="#45BCE0" transform="translate(205,205)"/>
<path d="M0 0 C3 3.75 3 3.75 3 6 C3.99 6.33 4.98 6.66 6 7 C5.01 7 4.02 7 3 7 C3 8.98 3 10.96 3 13 C1.02 13.66 -0.96 14.32 -3 15 C-4.25664978 12.09399739 -5 10.20395416 -5 7 C-4.34 7 -3.68 7 -3 7 C-3 6.34 -3 5.68 -3 5 C-1.68 5 -0.36 5 1 5 C0.67 3.35 0.34 1.7 0 0 Z " fill="#B0EE7C" transform="translate(303,190)"/>
<path d="M0 0 C4.65647576 2.75155386 7.2725704 5.17454764 10 10 C10 10.66 10 11.32 10 12 C9.34 12 8.68 12 8 12 C8.33 12.99 8.66 13.98 9 15 C8.34 15 7.68 15 7 15 C6.67 13.68 6.34 12.36 6 11 C4.35 11 2.7 11 1 11 C-0.28317892 7.15046324 -0.06643637 4.05261865 0 0 Z " fill="#B3ED65" transform="translate(307,229)"/>
<path d="M0 0 C0.99 0.33 1.98 0.66 3 1 C3.144375 2.051875 3.28875 3.10375 3.4375 4.1875 C3.87526966 7.15460549 4.37804866 10.06794366 5 13 C4.01 13 3.02 13 2 13 C2 12.34 2 11.68 2 11 C1.01 11 0.02 11 -1 11 C-2.32 8.36 -3.64 5.72 -5 3 C-4.01 3 -3.02 3 -2 3 C-2 2.34 -2 1.68 -2 1 C-1.34 0.67 -0.68 0.34 0 0 Z " fill="#3FBBE3" transform="translate(336,222)"/>
<path d="M0 0 C3.43365396 1.84770617 6.72594936 3.88416095 10 6 C9.67 6.66 9.34 7.32 9 8 C6.125 8.1875 6.125 8.1875 3 8 C2.34 7.01 1.68 6.02 1 5 C-2.05429073 3.78715124 -2.05429073 3.78715124 -5 3 C-5 2.34 -5 1.68 -5 1 C-6.65 1.66 -8.3 2.32 -10 3 C-9.67 2.01 -9.34 1.02 -9 0 C-5.25465883 -1.24844706 -3.83064817 -1.04472223 0 0 Z " fill="#A0E97C" transform="translate(157,273)"/>
<path d="M0 0 C0.33 0 0.66 0 1 0 C1 2.97 1 5.94 1 9 C2.98 9 4.96 9 7 9 C8.47075246 13.41225737 9.36884358 16.48281619 8 21 C7.34 21 6.68 21 6 21 C3.125 14.375 3.125 14.375 2 11 C1.34 11 0.68 11 0 11 C0 7.37 0 3.74 0 0 Z " fill="#A3D966" transform="translate(147,247)"/>
<path d="M0 0 C0 4.13926155 -2.17314476 6.2557343 -4.625 9.375 C-5.26501953 10.22191406 -5.26501953 10.22191406 -5.91796875 11.0859375 C-8.92340408 14.96160335 -12.13875035 17.97667549 -16 21 C-14.55676913 16.36287359 -11.8669489 13.36258067 -8.5625 9.9375 C-5.52971039 6.74529964 -2.54919077 3.60343237 0 0 Z " fill="#54DE28" transform="translate(359,347)"/>
<path d="M0 0 C0.33 0.66 0.66 1.32 1 2 C1.66 2.33 2.32 2.66 3 3 C2.54625 3.433125 2.0925 3.86625 1.625 4.3125 C-0.20024334 6.10798342 -0.20024334 6.10798342 -2 9 C-2.33 8.34 -2.66 7.68 -3 7 C-3.5775 7.66 -4.155 8.32 -4.75 9 C-7 11 -7 11 -11 11 C-10.67 10.01 -10.34 9.02 -10 8 C-9.01 8 -8.02 8 -7 8 C-6.67 7.34 -6.34 6.68 -6 6 C-5.34 6 -4.68 6 -4 6 C-3.8453125 5.071875 -3.8453125 5.071875 -3.6875 4.125 C-3 2 -3 2 0 0 Z " fill="#43BED4" transform="translate(173,154)"/>
<path d="M0 0 C0 0.33 0 0.66 0 1 C-6.6 2.32 -13.2 3.64 -20 5 C-20 5.66 -20 6.32 -20 7 C-20.66 7 -21.32 7 -22 7 C-22.33 7.66 -22.66 8.32 -23 9 C-23.66 7.68 -24.32 6.36 -25 5 C-8.29157175 -0.74031891 -8.29157175 -0.74031891 0 0 Z " fill="#3BC0D0" transform="translate(220,134)"/>
<path d="M0 0 C0.66 0 1.32 0 2 0 C2 0.66 2 1.32 2 2 C2.53625 2.226875 3.0725 2.45375 3.625 2.6875 C6.84930329 4.46935182 9.29649295 6.48082298 12 9 C12 9.99 12 10.98 12 12 C9.05043472 10.63055898 6.47531189 9.12169591 4 7 C4 6.34 4 5.68 4 5 C2.68 4.34 1.36 3.68 0 3 C0 2.01 0 1.02 0 0 Z " fill="#46BFD6" transform="translate(341,219)"/>
<path d="M0 0 C0.99 0.33 1.98 0.66 3 1 C3.5775 0.855625 4.155 0.71125 4.75 0.5625 C7.84905413 -0.21226353 10.82018489 -0.06115029 14 0 C14 0.66 14 1.32 14 2 C13.01 2.66 12.02 3.32 11 4 C10.01 5.485 10.01 5.485 9 7 C8.34 6.67 7.68 6.34 7 6 C7 5.01 7 4.02 7 3 C5.35 3.66 3.7 4.32 2 5 C1.34 3.35 0.68 1.7 0 0 Z " fill="#73D1BE" transform="translate(169,174)"/>
<path d="M0 0 C0.763125 0.20625 1.52625 0.4125 2.3125 0.625 C2.3125 1.285 2.3125 1.945 2.3125 2.625 C3.488125 2.810625 3.488125 2.810625 4.6875 3 C7.3125 3.625 7.3125 3.625 9.3125 5.625 C6.23113039 6.55218689 4.69578753 6.76768368 1.63671875 5.62890625 C0.76660156 5.15324219 -0.10351562 4.67757812 -1 4.1875 C-1.88300781 3.71441406 -2.76601563 3.24132812 -3.67578125 2.75390625 C-4.33964844 2.38136719 -5.00351562 2.00882813 -5.6875 1.625 C-2.6875 -0.375 -2.6875 -0.375 0 0 Z " fill="#A4EC72" transform="translate(286.6875,138.375)"/>
<path d="M0 0 C6.625 -0.25 6.625 -0.25 10 2 C10 2.66 10 3.32 10 4 C5.34462607 4.83796731 1.62921525 5.0161692 -3 4 C-1.68 3.67 -0.36 3.34 1 3 C0.67 2.01 0.34 1.02 0 0 Z " fill="#AFEF73" transform="translate(169,280)"/>
<path d="M0 0 C0.99 0.66 1.98 1.32 3 2 C3 2.66 3 3.32 3 4 C3.33 4.99 3.66 5.98 4 7 C1.36 7.33 -1.28 7.66 -4 8 C-4 4 -4 4 -3 2 C-2.01 2 -1.02 2 0 2 C0 1.34 0 0.68 0 0 Z " fill="#B2EC8A" transform="translate(175,168)"/>
<path d="M0 0 C1.84765625 0.33984375 1.84765625 0.33984375 4.0625 0.9375 C5.16271484 1.22947266 5.16271484 1.22947266 6.28515625 1.52734375 C7.13400391 1.76130859 7.13400391 1.76130859 8 2 C7.67 2.99 7.34 3.98 7 5 C3.7 5 0.4 5 -3 5 C-1 1 -1 1 0 0 Z " fill="#BFF278" transform="translate(192,145)"/>
<path d="M0 0 C5.15171623 -0.09038099 9.91913204 0.15318867 15 1 C15 1.33 15 1.66 15 2 C10.38 2.66 5.76 3.32 1 4 C1 4.66 1 5.32 1 6 C-0.32 5.67 -1.64 5.34 -3 5 C0 3 0 3 3 3 C3 2.34 3 1.68 3 1 C2.01 0.67 1.02 0.34 0 0 Z " fill="#98E391" transform="translate(221,134)"/>
<path d="M0 0 C0.66 0 1.32 0 2 0 C2 0.66 2 1.32 2 2 C4.64 1.67 7.28 1.34 10 1 C10 1.99 10 2.98 10 4 C9.34 3.67 8.68 3.34 8 3 C7.67 3.99 7.34 4.98 7 6 C1.25 4.375 1.25 4.375 -1 1 C-0.67 0.67 -0.34 0.34 0 0 Z " fill="#98EA66" transform="translate(152,302)"/>
<path d="M0 0 C0.33 0 0.66 0 1 0 C1.06058594 0.86882812 1.12117188 1.73765625 1.18359375 2.6328125 C1.26738281 3.78523438 1.35117188 4.93765625 1.4375 6.125 C1.51871094 7.26195312 1.59992188 8.39890625 1.68359375 9.5703125 C1.97730965 12.7540478 2.43124313 15.85510907 3 19 C0.06072301 16.57190162 -0.57298176 14.75776054 -1 11 C-1.13510475 7.14951469 -1.18057536 3.68929799 0 0 Z " fill="#79D371" transform="translate(112,254)"/>
<path d="M0 0 C0.66 0.33 1.32 0.66 2 1 C0.35 2.65 -1.3 4.3 -3 6 C-2.01 6.33 -1.02 6.66 0 7 C-1.375 8.5 -1.375 8.5 -3 10 C-3.66 10 -4.32 10 -5 10 C-5.75 7.75 -5.75 7.75 -6 5 C-4.15554062 2.71032629 -2.62637553 1.31318776 0 0 Z " fill="#46BDD9" transform="translate(183,153)"/>
<path d="M0 0 C0.66 0 1.32 0 2 0 C2.66 4.29 3.32 8.58 4 13 C1.57622271 9.76829695 0.12646305 7.75487684 -1 4 C-0.625 1.6875 -0.625 1.6875 0 0 Z " fill="#70CA59" transform="translate(363,230)"/>
<path d="M0 0 C2.1640625 -0.29296875 2.1640625 -0.29296875 4.625 -0.1875 C5.44226563 -0.16042969 6.25953125 -0.13335937 7.1015625 -0.10546875 C8.04128906 -0.05326172 8.04128906 -0.05326172 9 0 C8.67 1.32 8.34 2.64 8 4 C4.7 3.67 1.4 3.34 -2 3 C-1.34 2.01 -0.68 1.02 0 0 Z " fill="#8CD7B1" transform="translate(190,207)"/>
<path d="M0 0 C-0.87011719 0.18175781 -0.87011719 0.18175781 -1.7578125 0.3671875 C-6.28028442 1.33735474 -10.63750966 2.43397783 -15 4 C-14.67 2.68 -14.34 1.36 -14 0 C-12.42074025 -0.39180108 -10.83631206 -0.76280736 -9.25 -1.125 C-8.36828125 -1.33382812 -7.4865625 -1.54265625 -6.578125 -1.7578125 C-3.67124507 -2.03088304 -2.43338652 -1.53508028 0 0 Z " fill="#34BBD9" transform="translate(186,150)"/>
<path d="M0 0 C1.67542976 0.28604898 3.34385343 0.61781233 5 1 C5 4 5 4 3 6.1875 C2.34 6.785625 1.68 7.38375 1 8 C-0.125 4.25 -0.125 4.25 1 2 C0.34 1.67 -0.32 1.34 -1 1 C-0.67 0.67 -0.34 0.34 0 0 Z " fill="#75D2B7" transform="translate(155,217)"/>
<path d="M0 0 C0.66 0 1.32 0 2 0 C3.31626692 3.61973402 4 6.09567131 4 10 C3.01 10 2.02 10 1 10 C0.37542727 6.56484998 0 3.50935186 0 0 Z " fill="#8DE475" transform="translate(337,225)"/>
<path d="M0 0 C0.99 0.66 1.98 1.32 3 2 C3 2.99 3 3.98 3 5 C2.278125 4.814375 1.55625 4.62875 0.8125 4.4375 C-2.12826973 3.98004693 -4.14103058 4.26483643 -7 5 C-2.25 1.125 -2.25 1.125 0 0 Z " fill="#4CC2DD" transform="translate(151,211)"/>
<path d="M0 0 C4.29 0.33 8.58 0.66 13 1 C11.68 1.33 10.36 1.66 9 2 C8.67 2.99 8.34 3.98 8 5 C8 4.01 8 3.02 8 2 C4.535 3.485 4.535 3.485 1 5 C1 4.34 1 3.68 1 3 C0.34 2.67 -0.32 2.34 -1 2 C-0.67 1.34 -0.34 0.68 0 0 Z " fill="#97E09A" transform="translate(186,150)"/>
<path d="M0 0 C2.31 0.66 4.62 1.32 7 2 C6.01 2.495 6.01 2.495 5 3 C5 3.99 5 4.98 5 6 C1.73045798 5.43628586 0.17424117 4.50037734 -2 2 C-1.34 2 -0.68 2 0 2 C0 1.34 0 0.68 0 0 Z " fill="#A5E987" transform="translate(194,140)"/>
<path d="M0 0 C1.32 0.33 2.64 0.66 4 1 C2.515 2.485 2.515 2.485 1 4 C2.65 4.33 4.3 4.66 6 5 C6 5.33 6 5.66 6 6 C3.36 6 0.72 6 -2 6 C-2.33 5.01 -2.66 4.02 -3 3 C-2.34 3 -1.68 3 -1 3 C-0.67 2.01 -0.34 1.02 0 0 Z " fill="#ADEA89" transform="translate(214,141)"/>
<path d="M0 0 C2.475 0.495 2.475 0.495 5 1 C5.33 3.31 5.66 5.62 6 8 C5.01 8.495 5.01 8.495 4 9 C3.34 8.67 2.68 8.34 2 8 C2 7.34 2 6.68 2 6 C2.66 6 3.32 6 4 6 C4 4.68 4 3.36 4 2 C2.68 2 1.36 2 0 2 C0 1.34 0 0.68 0 0 Z " fill="#BCEE9F" transform="translate(210,208)"/>
<path d="M0 0 C-0.33 0.99 -0.66 1.98 -1 3 C-3.31 3.33 -5.62 3.66 -8 4 C-7.1875 2.0625 -7.1875 2.0625 -6 0 C-3 -1 -3 -1 0 0 Z " fill="#BAF273" transform="translate(183,146)"/>
<path d="M0 0 C0.66 0.99 1.32 1.98 2 3 C-0.25 5.5 -0.25 5.5 -3 8 C-4.32 8 -5.64 8 -7 8 C-6.67 7.01 -6.34 6.02 -6 5 C-5.01 5 -4.02 5 -3 5 C-2.67 4.34 -2.34 3.68 -2 3 C-1.34 3 -0.68 3 0 3 C0 2.01 0 1.02 0 0 Z " fill="#56C6C5" transform="translate(169,157)"/>
<path d="M0 0 C0.99 0.33 1.98 0.66 3 1 C2.34 3.31 1.68 5.62 1 8 C-0.68496298 7.03114628 -2.35178756 6.03013277 -4 5 C-4 4.67 -4 4.34 -4 4 C-2.35 4 -0.7 4 1 4 C0.67 2.68 0.34 1.36 0 0 Z " fill="#8DE661" transform="translate(349,233)"/>
<path d="M0 0 C1.32 0.66 2.64 1.32 4 2 C4 2.99 4 3.98 4 5 C2.68 4.34 1.36 3.68 0 3 C-0.33 3.99 -0.66 4.98 -1 6 C-1.625 4.125 -1.625 4.125 -2 2 C-1.34 1.34 -0.68 0.68 0 0 Z " fill="#79D79D" transform="translate(326,189)"/>
<path d="M0 0 C0.33 0.66 0.66 1.32 1 2 C1.66 2.33 2.32 2.66 3 3 C0.42215154 5.64752004 -1.91648098 7.94432065 -5 10 C-3.66511872 6.40608886 -2.03977277 3.24509304 0 0 Z " fill="#2CD093" transform="translate(358,344)"/>
<path d="M0 0 C2.64 1.32 5.28 2.64 8 4 C8 4.33 8 4.66 8 5 C2.58461538 5.36923077 2.58461538 5.36923077 -0.375 3.5 C-0.91125 3.005 -1.4475 2.51 -2 2 C-1.34 2 -0.68 2 0 2 C0 1.34 0 0.68 0 0 Z " fill="#4BD946" transform="translate(219,400)"/>
<path d="M0 0 C2.0625 0.4375 2.0625 0.4375 4 1 C3.34 2.32 2.68 3.64 2 5 C1.34 5 0.68 5 0 5 C-0.5625 3.0625 -0.5625 3.0625 -1 1 C-0.67 0.67 -0.34 0.34 0 0 Z " fill="#ABEA91" transform="translate(268,168)"/>
<path d="M0 0 C0.66 0 1.32 0 2 0 C2.66 2.31 3.32 4.62 4 7 C3.01 7 2.02 7 1 7 C-0.0625 4.625 -0.0625 4.625 -1 2 C-0.67 1.34 -0.34 0.68 0 0 Z " fill="#36B7DF" transform="translate(360,231)"/>
</svg>
